<svg viewBox="0 0 321 321" xmlns="http://www.w3.org/2000/svg" xmlns:xlink="http://www.w3.org/1999/xlink"><linearGradient id="a"><stop offset="0" stop-color="#2f3c39"/><stop offset="1" stop-color="#79f9de"/></linearGradient><linearGradient id="b" x1="50%" x2="50%" xlink:href="#a" y1="58.897944%" y2="-192.890476%"/><linearGradient id="c" x1="50%" x2="50%" xlink:href="#a" y1="28.556854%" y2="-232.316629%"/><linearGradient id="d" x1="50%" x2="50%" xlink:href="#a" y1="46.700629%" y2="-192.890476%"/><linearGradient id="e" x1="50%" x2="50%" xlink:href="#a" y1="59.082572%" y2="-192.890476%"/><linearGradient id="f" x1="50%" x2="50%" y1="0%" y2="61.167109%"><stop offset="0" stop-color="#1a2421"/><stop offset=".48920356" stop-color="#2c3936"/><stop offset="1" stop-color="#2f3c39"/></linearGradient><linearGradient id="g" x1="50%" x2="50%" y1="31.01101%" y2="100%"><stop offset="0" stop-color="#4bd8c4"/><stop offset="1" stop-color="#1aa789"/></linearGradient><linearGradient id="h" x1="50%" x2="50%" y1="82.116236%" y2="16.581868%"><stop offset="0" stop-color="#cffff5"/><stop offset="1" stop-color="#79f9de"/></linearGradient><linearGradient id="i" x1="50%" x2="50%" y1="31.01101%" y2="100%"><stop offset="0" stop-color="#35a394"/><stop offset="1" stop-color="#0f7861"/></linearGradient><linearGradient id="j" x1="50%" x2="50%" y1="88.667727%" y2="16.581868%"><stop offset="0" stop-color="#67c2af"/><stop offset="1" stop-color="#2ea188"/></linearGradient><linearGradient id="k" x1="59.233827%" x2="59.233827%" y1="26.171241%" y2="88.769985%"><stop offset="0" stop-color="#202a28"/><stop offset="1" stop-color="#2e3b38" stop-opacity="0"/></linearGradient><linearGradient id="l" x1="24.345151%" x2="55.827323%" y1="16.676215%" y2="82.410524%"><stop offset="0" stop-color="#befff1"/><stop offset="1" stop-color="#41f5cf"/></linearGradient><linearGradient id="m" x1="29.714316%" x2="67.209335%" y1="30.356681%" y2="82.994908%"><stop offset="0" stop-color="#2dc3a3"/><stop offset="1" stop-color="#07896e"/></linearGradient><linearGradient id="n" x1="24.191107%" x2="100%" y1="47.322869%" y2="55.560587%"><stop offset="0" stop-color="#31cdac"/><stop offset="1" stop-color="#1e967c"/></linearGradient><linearGradient id="o" x1="3.014027%" x2="83.243855%" y1="55.29163%" y2="45.882608%"><stop offset="0" stop-color="#71d4bf"/><stop offset="1" stop-color="#34d1b0"/></linearGradient><linearGradient id="p" x1="12.367447%" x2="100%" y1="50%" y2="50%"><stop offset="0" stop-color="#a5f5e4"/><stop offset="1" stop-color="#55dbbf"/></linearGradient><path d="m.5.5h320v320h-320z" fill="#d8d8d8" opacity="0" stroke="#979797"/><g transform="translate(9 48)"><path d="m180.11423 50.4932774c4.542047 0 8.224104 3.6820571 8.224104 8.2241046v2.9703341c0 4.418278 3.581722 8 8 8h11.559288c2.244572 0 4.064158 1.8195856 4.064158 4.0641582 0 2.2445725 1.819585 4.0641581 4.064158 4.0641581h4.969427c4.720103 0 8.546502 3.8263996 8.546502 8.5465027v4.9059733c0 2.0106088 1.629921 3.6405293 3.64053 3.6405293 2.010608 0 3.640529-1.6299205 3.640529-3.6405293v-48.6284234c0-6.4109163 5.197074-11.6079908 11.607991-11.6079908 6.410916 0 11.60799 5.1970745 11.60799 11.6079908v87.832323c0 2.209139-1.790861 4-4 4h-80.148782c-2.209139 0-4-1.790861-4-4v-71.755026c0-4.5420475 3.682057-8.2241046 8.224105-8.2241046z" fill="url(#b)"/><path d="m90.7294374 6.29388609h19.1285996c2.173074 0 3.934698 1.76162439 3.934698 3.93469821 0 2.1730738 1.761625 3.9346982 3.934699 3.9346982h5.196847c2.209139 0 4 1.790861 4 4v.0054884c0 2.2121701 1.793318 4.0054883 4.005488 4.0054883h4.16558c4.512756 0 8.171068-3.6583118 8.171068-8.1710682v-5.66752561c0-4.60366087 3.732005-8.33566539 8.335666-8.33566539s8.335665 3.73200452 8.335665 8.33566539v111.79271161c0 2.209139-1.790861 4-4 4h-65.2083106c-2.209139 0-4-1.790861-4-4v-109.8344909c0-2.20913901 1.790861-4.00000001 4-4.00000001z" fill="url(#c)"/><path d="m43.9765048 55.0586056c6.0932279 0 11.0327651 4.9395371 11.0327651 11.032765v4.9047814c0 8.8020639 7.1354826 15.9375465 15.9375464 15.9375465h1.2981785c9.519028 0 17.2357248-7.7166969 17.2357248-17.2357249v-12.5975887c0-4.6036609 3.7320046-8.3356654 8.3356654-8.3356654 4.603661 0 8.335665 3.7320045 8.335665 8.3356654v111.7927111c0 2.209139-1.790861 4-4 4h-65.2083102c-2.209139 0-4-1.790861-4-4v-102.8017254c0-6.0932279 4.9395371-11.032765 11.032765-11.032765z" fill="url(#d)"/><path d="m147.065759 16.6379175c6.093227 0 11.032765 4.9395372 11.032765 11.032765v4.9047814c0 8.8020639 7.135482 15.9375465 15.937546 15.9375465h1.298179c9.519028 0 17.235724-7.7166969 17.235724-17.2357249v-12.5975887c0-4.6036609 3.732005-8.3356654 8.335666-8.3356654s8.335665 3.7320045 8.335665 8.3356654v111.7927112c0 2.209139-1.790861 4-4 4h-65.20831c-2.209139 0-4-1.790861-4-4v-102.8017255c0-6.0932278 4.939537-11.032765 11.032765-11.032765z" fill="url(#e)"/><ellipse cx="152" cy="162.549065" fill="url(#f)" rx="152" ry="62.064188"/><g transform="translate(19.432002 112.306627)"><rect fill="url(#g)" height="20.769282" rx="1.690141" width="3.380282" x="23.101023" y="30.950875"/><path d="m25.1729613 0-10.6704517 15.092222c-4.1463353 5.8645514-2.7534459 13.9799784 3.1111055 18.1263136 2.1956728 1.5523772 4.8185792 2.3859478 7.507604 2.3859478 7.1993512 0 13.0355784-5.8362273 13.0355784-13.0355784 0-2.6867846-.8302139-5.3079369-2.3770378-7.5047863z" fill="url(#h)"/></g><g transform="translate(239.612099 132.994689)"><rect fill="url(#g)" height="10.419087" rx="1.477719" width="2.955438" x="20.196021" y="17.65757"/><path d="m22.2114364 0-6.0461047 5.67229309c-3.5323511 3.31395695-3.7093945 8.86398621-.3954375 12.39633731 1.6578308 1.767084 3.972875 2.7695429 6.3958874 2.7695429 4.8580922 0 8.7963542-3.9382619 8.7963542-8.7963542 0-2.42400967-1.0002944-4.74058236-2.7646926-6.40272627z" fill="url(#h)"/></g><g transform="translate(218.924036 112.306627)"><rect fill="url(#i)" height="11.907528" rx="1.5" width="3.380282" x="20.196021" y="16.169129"/><path d="m22.2114364 0-4.9378792 3.97078772c-3.359953 2.70190089-3.8934096 7.61600438-1.1915087 10.97595738 1.4818484 1.8427549 3.7190724 2.9145463 6.0837331 2.9145463 4.3254123 0 7.8318518-3.5064395 7.8318518-7.8318518 0-2.36673312-1.0702553-4.60653252-2.9116364-6.09338859z" fill="url(#j)"/></g><path d="m96.273378 128.561533 53.78446 35.465251 109.981069-4.590164-60.811565-29.392677z" fill="url(#k)"/><g transform="translate(87.407065 58.635758)"><path d="m8.5812417 69.7881689 53.7619823 13.4370751v-60.6111043l-53.7619823-14.44318913z" fill="url(#l)"/><path d="m62.343224 22.6141397 49.148956-16.55107255v64.39854945l-49.148956 12.7636274z" fill="url(#m)"/><path d="m8.5812417 8.17095057 46.4421059-8.17095057v20.6625199z" fill="url(#n)"/><path d="m55.0233476 0v20.6625199l7.3198764 1.9516198 49.148956-16.55107255z" fill="url(#o)"/><path d="m59.7610156 21.9203799-8.9864117 21.0780453-50.7746039-17.4137373 8.5812417-17.41373733z" fill="#cffff5"/><path d="m64.4315579 21.9199369 11.9306202 22.7242187 46.2884799-17.3207421-11.158478-21.26034635z" fill="url(#p)"/></g><g fill="#23aa8d" transform="translate(95.988307 22.165782)"><path d="m84.9596963 0-31.197714 13.69967 2.0879939 3.9171523h8.677354l-8.677354 8.3299935-9.4078703-14.9880814z"/><path d="m0 20.4495145 11.1927838 2.8498346-8.41517956-6.1244892z"/><path d="m5.59639189 8.71481815 7.93144991 11.52228635v-11.52228635z"/><path d="m16.255877 17.1748599v-6.2161255h5.0592196z"/></g></g></svg>