<svg viewBox="0 0 280 280" xmlns="http://www.w3.org/2000/svg" xmlns:xlink="http://www.w3.org/1999/xlink"><linearGradient id="a"><stop offset="0" stop-color="#2f3c39"/><stop offset="1" stop-color="#79f9de"/></linearGradient><linearGradient id="b" x1="50%" x2="50%" xlink:href="#a" y1="58.897944%" y2="-192.890476%"/><linearGradient id="c" x1="50%" x2="50%" xlink:href="#a" y1="28.556854%" y2="-232.316629%"/><linearGradient id="d" x1="50%" x2="50%" xlink:href="#a" y1="46.700629%" y2="-192.890476%"/><linearGradient id="e" x1="50%" x2="50%" xlink:href="#a" y1="59.082572%" y2="-192.890476%"/><linearGradient id="f" x1="50%" x2="50%" y1="0%" y2="79.58816%"><stop offset="0" stop-color="#1a2421"/><stop offset=".48920356" stop-color="#394b47"/><stop offset="1" stop-color="#3c4d49"/></linearGradient><linearGradient id="g" x1="50%" x2="50%" y1="31.01101%" y2="100%"><stop offset="0" stop-color="#4bd8c4"/><stop offset="1" stop-color="#1aa789"/></linearGradient><linearGradient id="h" x1="50%" x2="50%" y1="82.116236%" y2="16.581868%"><stop offset="0" stop-color="#cffff5"/><stop offset="1" stop-color="#79f9de"/></linearGradient><linearGradient id="i" x1="50%" x2="50%" y1="31.01101%" y2="100%"><stop offset="0" stop-color="#35a394"/><stop offset="1" stop-color="#0f7861"/></linearGradient><linearGradient id="j" x1="50%" x2="50%" y1="88.667727%" y2="16.581868%"><stop offset="0" stop-color="#67c2af"/><stop offset="1" stop-color="#2ea188"/></linearGradient><linearGradient id="k" x1="59.233827%" x2="59.233827%" y1="26.171241%" y2="88.769985%"><stop offset="0" stop-color="#202a28"/><stop offset="1" stop-color="#2e3b38" stop-opacity="0"/></linearGradient><g fill="none" fill-rule="evenodd"><path d="m.5.5h279v279h-279z" fill="#d8d8d8" opacity="0" stroke="#979797"/><g transform="translate(7.850467 41.869159)"><path d="m157.108986 44.0439803c3.96191 0 7.173673 3.2117632 7.173673 7.1736738v1.5691388c0 4.418278 3.581722 8 8 8h9.061061c1.957883 0 3.54506 1.5871774 3.54506 3.54506 0 1.9578827 1.587177 3.5450601 3.54506 3.5450601h4.334702c4.117224 0 7.454894 3.3376694 7.454894 7.4548933v4.2793537c0 1.7538021 1.421737 3.1755396 3.175539 3.1755396s3.17554-1.4217375 3.17554-3.1755396v-42.4173164c0-5.5920765 4.533273-10.1253502 10.12535-10.1253502s10.12535 4.5332737 10.12535 10.1253502v76.1029614c0 2.209139-1.790861 4-4 4h-68.889903c-2.209139 0-4-1.790861-4-4v-62.0791509c0-3.9619106 3.211763-7.1736738 7.173674-7.1736738z" fill="url(#b)"/><path d="m79.6518457 5.4899941h16.1744796c1.8955161 0 3.4321355 1.5366194 3.4321355 3.43213549 0 1.89551611 1.5366192 3.43213551 3.4321352 3.43213551h4.528288c1.929619 0 3.493884 1.5642651 3.493884 3.4938839 0 1.9296189 1.564265 3.493884 3.493884 3.493884h3.633528c3.936361 0 7.127411-3.1910509 7.127411-7.1274116v-4.94363601c0-4.01565435 3.255331-7.27098539 7.270986-7.27098539 4.015654 0 7.270985 3.25533104 7.270985 7.27098539v97.00298861c0 2.209139-1.790861 4-4 4h-55.8577163c-2.209139 0-4-1.790861-4-4v-94.7839799c0-2.209139 1.790861-4 4-4z" fill="url(#c)"/><path d="m38.3595681 48.026198c5.3149651 0 9.6235957 4.3086305 9.6235957 9.6235957v4.278314c0 7.6778127 6.2240969 13.9019096 13.9019096 13.9019096h1.1323675c8.303202 0 15.0342772-6.7310751 15.0342772-15.0342771v-10.9885509c0-4.0156544 3.255331-7.2709854 7.2709854-7.2709854 4.0156543 0 7.2709853 3.255331 7.2709853 7.2709854v97.0029877c0 2.209139-1.790861 4-4 4h-55.8577164c-2.209139 0-4-1.790861-4-4v-89.1603833c0-5.3149652 4.3086305-9.6235957 9.6235957-9.6235957z" fill="url(#d)"/><path d="m128.281659 14.5128252c5.314965 0 9.623595 4.3086306 9.623595 9.6235957v4.278314c0 7.6778127 6.224097 13.9019097 13.90191 13.9019097h1.132367c8.303202 0 15.034278-6.7310752 15.034278-15.0342772v-10.9885509c0-4.0156543 3.255331-7.27098537 7.270985-7.27098537s7.270985 3.25533107 7.270985 7.27098537v97.0029885c0 2.209139-1.790861 4-4 4h-55.857716c-2.209139 0-4-1.790861-4-4v-89.1603841c0-5.3149651 4.30863-9.6235957 9.623596-9.6235957z" fill="url(#e)"/><ellipse cx="132.58567" cy="141.787346" fill="url(#f)" rx="132.58567" ry="54.136987"/><g transform="translate(16.950033 97.962167)"><rect fill="url(#g)" height="18.116508" rx="1.474266" width="2.948532" x="20.150425" y="26.997648"/><path d="m21.9577232 0-9.3075591 13.164555c-3.61674101 5.1154965-2.4017596 12.1943737 2.7137369 15.8111147 1.9152287 1.3540985 4.2031221 2.0812005 6.5486889 2.0812005 6.2798078 0 11.3705979-5.0907901 11.3705979-11.3705979 0-2.3436127-.7241741-4.6299761-2.0734286-6.546231z" fill="url(#h)"/></g><g transform="translate(209.007438 116.007829)"><rect fill="url(#g)" height="9.0883" rx="1.288976" width="2.577952" x="17.616467" y="15.402242"/><path d="m19.3744617 0-5.2738608 4.9477946c-3.0811785 2.89067896-3.2356089 7.731826-.34493 10.8130045 1.446083 1.5413817 3.4654361 2.4158007 5.5789672 2.4158007 4.2375883 0 7.6728323-3.435244 7.6728323-7.6728323 0-2.11440102-.8725309-4.13508747-2.4115697-5.58493263z" fill="url(#h)"/></g><g transform="translate(190.961776 97.962167)"><rect fill="url(#i)" height="10.386628" rx="1.474266" width="2.948532" x="17.616467" y="14.103913"/><path d="m19.3744617 0-4.3071844 3.46361545c-2.9308001 2.35679829-3.3961205 6.64324375-1.0393222 9.57404385 1.292578 1.6073874 3.2440507 2.5422834 5.306683 2.5422834 3.7729454 0 6.8315219-3.0585766 6.8315219-6.83152191 0-2.06444006-.933556-4.01815916-2.5397452-5.31510527z" fill="url(#j)"/></g><path d="m87.8252152 127.198305 16.8924278 27.932536 117.35753-4.320664-56.1703-30.290933z" fill="url(#k)"/><g fill-rule="nonzero" transform="translate(82.149533 31.130841)"><path d="m100 15.9509201c0-8.58895709-7.3619631-15.9509201-15.9509203-15.9509201h-68.0981594c-8.58895715 0-15.9509203 7.36196315-15.9509203 15.9509201v67.7914111c0 8.5889571 7.36196315 15.9509203 15.9509203 15.9509203h67.791411c8.5889572 0 15.9509203-7.3619632 15.9509203-15.9509203v-16.8711656h-35.8895705c0-.3067485-13.8036811.9202455-13.8036811-16.2576687 0-18.404908 15.0306749-17.1779141 15.0306749-17.1779141h34.9693251z" fill="#41f5cf"/><path d="m56.4417178 50.3067485c0 11.9631902 10.7361962 10.7361962 10.7361964 10.7361962h31.595092v-23.006135h-30.6748467c0 .3067485-11.6564417-.6134969-11.6564417 12.2699388zm11.9631902-5.214724c2.1472393 0 3.98773 1.8404907 3.98773 3.98773 0 1.5337424-.9202454 2.7607362-2.1472392 3.6809816-1.2269939.6134969-2.7607362.6134969-3.9877301 0-1.2269938-.6134969-2.1472393-2.1472392-2.1472393-3.6809816.3067486-2.1472393 2.1472393-3.98773 4.2944786-3.98773z" fill="#229d83"/></g></g></g></svg>