<svg viewBox="0 0 380 380" xmlns="http://www.w3.org/2000/svg" xmlns:xlink="http://www.w3.org/1999/xlink"><defs><linearGradient id="a"><stop offset="0" stop-color="#3d4d4a"/><stop offset="1" stop-color="#79f9de"/></linearGradient><linearGradient id="b" x1="50%" x2="50%" xlink:href="#a" y1="58.897944%" y2="-192.890476%"/><linearGradient id="c" x1="50%" x2="50%" xlink:href="#a" y1="28.556854%" y2="-232.316629%"/><linearGradient id="d" x1="50%" x2="50%" xlink:href="#a" y1="46.700629%" y2="-192.890476%"/><linearGradient id="e" x1="50%" x2="50%" xlink:href="#a" y1="59.082572%" y2="-192.890476%"/><linearGradient id="f" x1="50%" x2="50%" y1="0%" y2="61.167109%"><stop offset="0" stop-color="#1a2421"/><stop offset=".47157664" stop-color="#3d4d4a"/><stop offset="1" stop-color="#3d4d4a"/></linearGradient><linearGradient id="g" x1="50%" x2="50%" y1="31.01101%" y2="100%"><stop offset="0" stop-color="#4bd8c4"/><stop offset="1" stop-color="#1aa789"/></linearGradient><linearGradient id="h" x1="50%" x2="50%" y1="82.116236%" y2="16.581868%"><stop offset="0" stop-color="#cffff5"/><stop offset="1" stop-color="#79f9de"/></linearGradient><linearGradient id="i" x1="50%" x2="50%" y1="31.01101%" y2="100%"><stop offset="0" stop-color="#35a394"/><stop offset="1" stop-color="#0f7861"/></linearGradient><linearGradient id="j" x1="50%" x2="50%" y1="88.667727%" y2="16.581868%"><stop offset="0" stop-color="#67c2af"/><stop offset="1" stop-color="#2ea188"/></linearGradient><linearGradient id="k"><stop offset="0" stop-color="#befff1"/><stop offset="1" stop-color="#41f5cf"/></linearGradient><linearGradient id="l" x1="21.495486%" x2="56.474605%" xlink:href="#k" y1="16.676215%" y2="82.410524%"/><path id="m" d="m51.352 54.488h-7.448v14.504h-13.622v-14.504h-30.282v-13.916l27.342-39.592h16.562v41.454h7.448zm-21.07-12.054v-26.754h-.588l-17.64 26.166v.588z"/><linearGradient id="n" x1="25.086505%" x2="55.65893%" xlink:href="#k" y1="16.676215%" y2="82.410524%"/><path id="o" d="m84.182 69.972c-3.724 0-7.1213333-.5063333-10.192-1.519s-5.684-2.842-7.84-5.488-3.822-6.2393333-4.998-10.78-1.764-10.3063333-1.764-17.297.588-12.74 1.764-17.248 2.842-8.06866667 4.998-10.682 4.7693333-4.42633333 7.84-5.439 6.468-1.519 10.192-1.519 7.105.50633333 10.143 1.519 5.635 2.82566667 7.791 5.439 3.805667 6.174 4.949 10.682 1.715 10.2573333 1.715 17.248-.571667 12.7563333-1.715 17.297-2.793 8.134-4.949 10.78-4.753 4.4753333-7.791 5.488-6.419 1.519-10.143 1.519zm0-12.25c1.8946667 0 3.5116667-.3266667 4.851-.98s2.4336667-1.813 3.283-3.479 1.47-3.969 1.862-6.909.588-6.7293333.588-11.368c0-4.5733333-.196-8.33-.588-11.27s-1.0126667-5.2756667-1.862-7.007-1.9436667-2.9236667-3.283-3.577-2.9563333-.98-4.851-.98-3.5116667.3266667-4.851.98-2.4336667 1.8456667-3.283 3.577-1.47 4.067-1.862 7.007-.588 6.6966667-.588 11.27c0 4.6386667.196 8.428.588 11.368s1.0126667 5.243 1.862 6.909 1.9436667 2.8256667 3.283 3.479 2.9563333.98 4.851.98z"/><path id="p" d="m166.992 54.488h-7.448v14.504h-13.622v-14.504h-30.282v-13.916l27.342-39.592h16.562v41.454h7.448zm-21.07-12.054v-26.754h-.588l-17.64 26.166v.588z"/></defs><g fill="none" fill-rule="evenodd"><path d="m.5.5h379v379h-379z" fill="#d8d8d8" opacity="0" stroke="#979797"/><g transform="translate(10.654206 56.82243)"><path d="m213.219338 59.7739733c5.376878 0 9.7357 4.3588214 9.7357 9.7357001v4.9866884c0 4.418278 3.581722 8 8 8h15.154296c2.657127 0 4.811153 2.1540265 4.811153 4.8111529s2.154027 4.8111529 4.811153 4.8111529h5.88281c5.587661 0 10.117355 4.5296942 10.117355 10.1173554v5.807694c0 2.38016 1.929501 4.309661 4.309661 4.309661s4.309661-1.929501 4.309661-4.309661v-57.5663578c0-7.5892467 6.1523-13.7415467 13.741547-13.7415467s13.741547 6.1523 13.741547 13.7415467v104.7111618c0 2.209139-1.790861 4-4 4h-96.350584c-2.209139 0-4-1.790861-4-4v-85.6788476c0-5.3768787 4.358822-9.7357001 9.735701-9.7357001z" fill="url(#b)"/><path d="m106.670362 7.45070628h24.037549c2.209139 0 4 1.790861 4 4.00000002v1.3157963c0 2.209139 1.790861 4 4 4h7.545132c2.209139 0 4 1.790861 4 4v.7416997c0 2.6187684 2.122931 4.7416996 4.741699 4.7416996h4.931216c5.342204 0 9.672916-4.3307119 9.672916-9.6729157v-6.70922031c0-5.44981662 4.417949-9.86776589 9.867766-9.86776589s9.867766 4.41794927 9.867766 9.86776589v133.07548411c0 2.209139-1.790861 4-4 4h-78.664044c-2.209139 0-4-1.790861-4-4v-131.4925437c0-2.20913902 1.790861-4.00000002 4-4.00000002z" fill="url(#c)"/><path d="m52.0594138 65.1784116c7.213167 0 13.0605941 5.8474271 13.0605941 13.0605941v5.8062833c0 10.4198887 8.4469888 18.866877 18.8668775 18.866877h1.5367844c11.2686313 0 20.4036622-9.1350302 20.4036622-20.4036615v-14.9130333c0-5.4498166 4.417949-9.8677659 9.867766-9.8677659 5.449816 0 9.867765 4.4179493 9.867765 9.8677659v133.0754838c0 2.209139-1.790861 4-4 4h-78.6640433c-2.209139 0-4-1.790861-4-4v-122.4319493c0-7.213167 5.8474272-13.0605941 13.0605941-13.0605941z" fill="url(#d)"/><path d="m174.096537 19.6959771c7.213167 0 13.060594 5.8474272 13.060594 13.0605941v5.8062833c0 10.4198887 8.446989 18.8668774 18.866877 18.8668774h1.536785c11.268631 0 20.403661-9.1350305 20.403661-20.4036618v-14.9130334c0-5.4498166 4.41795-9.8677659 9.867766-9.8677659 5.449817 0 9.867766 4.4179493 9.867766 9.8677659v133.0754843c0 2.209139-1.790861 4-4 4h-78.664043c-2.209139 0-4-1.790861-4-4v-122.4319498c0-7.2131669 5.847427-13.0605941 13.060594-13.0605941z" fill="url(#e)"/><ellipse cx="179.937695" cy="192.425684" fill="url(#f)" rx="179.937695" ry="73.471625"/></g><g transform="translate(33.657822 189.771085)"><rect fill="url(#g)" height="24.586689" rx="2.00079" width="4.00158" x="27.347005" y="36.639665"/><path d="m29.7997672 0-12.6316873 17.8661818c-4.9084343 6.9424596-3.259531 16.5495071 3.6829286 21.4579414 2.5992389 1.8377051 5.7042371 2.8244864 8.8875063 2.8244864 8.5225964 0 15.4315258-6.9089294 15.4315258-15.4315258 0-3.1806172-.9828077-6.283539-2.8139388-8.8841706z" fill="url(#h)"/></g><g transform="translate(294.307158 214.261626)"><rect fill="url(#g)" height="12.334121" rx="1.749324" width="3.498649" x="23.908063" y="20.903042"/><path d="m26.2939123 0-7.1573825 6.7148641c-4.1815994 3.9230643-4.3911836 10.4931924-.4681193 14.6747918 1.9625412 2.0918752 4.7030919 3.2785867 7.5714555 3.2785867 5.7510127 0 10.4131296-4.6621169 10.4131296-10.4131296 0-2.8695442-1.1841491-5.61190439-3.2728447-7.57955139z" fill="url(#h)"/></g><g transform="translate(269.816616 189.771085)"><rect fill="url(#i)" height="14.096139" rx="1.5" width="4.00158" x="23.908063" y="19.141025"/><path d="m26.2939123 0-5.8454645 4.70062097c-3.9775144 3.19851196-4.6090208 9.01583083-1.4105088 12.99334523 1.7542131 2.1814543 4.4026403 3.4502417 7.201927 3.4502417 5.1204259 0 9.2713512-4.1509253 9.2713512-9.2713511 0-2.80174009-1.266969-5.45321602-3.4467971-7.21335717z" fill="url(#j)"/></g><g fill-rule="nonzero" transform="translate(106.409901 130.107689)"><g><use fill="#12121a" xlink:href="#m"/><use fill="url(#l)" xlink:href="#m"/></g><g><use fill="#12121a" xlink:href="#o"/><use fill="url(#n)" xlink:href="#o"/></g><g><use fill="#12121a" xlink:href="#p"/><use fill="url(#l)" xlink:href="#p"/></g></g></g></svg>