<svg xmlns="http://www.w3.org/2000/svg" viewBox="0 0 1024 1024">
  <path fill="#18a058" d="M512 921.6c-69.53 0-133.427-15.872-191.744-47.462a414.976 414.976 0 0 1-143.36-126.618v99.584H102.4V623.718h223.437v74.445h-92.16a337.152 337.152 0 0 0 117.76 108.032c48.691 27.29 102.246 40.96 160.563 40.96 46.592 0 90.112-8.857 130.816-26.573a340.634 340.634 0 0 0 106.086-71.68 340.634 340.634 0 0 0 71.68-106.086A324.198 324.198 0 0 0 847.104 512H921.6c0 56.474-10.752 109.568-32.102 159.232a414.566 414.566 0 0 1-87.962 130.304 414.566 414.566 0 0 1-130.355 87.962A397.67 397.67 0 0 1 512 921.6zM102.4 512c0-56.474 10.752-109.568 32.102-159.232 21.402-49.613 50.74-93.03 87.962-130.304a414.566 414.566 0 0 1 130.355-87.962A397.67 397.67 0 0 1 512 102.4c69.53 0 133.427 15.872 191.744 47.462a414.976 414.976 0 0 1 143.36 126.618v-99.584H921.6v223.386H698.163v-74.445h92.16a337.152 337.152 0 0 0-117.76-108.032A322.816 322.816 0 0 0 512 176.845c-46.592 0-90.112 8.857-130.816 26.573a340.634 340.634 0 0 0-106.086 71.68 340.634 340.634 0 0 0-71.68 106.086A324.198 324.198 0 0 0 176.896 512H102.4z"/>
  <path fill="#f9b54c" d="M478.464 772.608v-48.384c-29.184-6.81-52.89-19.354-71.168-37.683-18.33-18.279-31.846-42.343-40.5-72.141l61.44-24.218c7.425 25.447 19.047 44.544 34.868 57.242 15.872 12.749 33.997 19.098 54.477 19.098s38.041-4.813 52.582-14.439c14.592-9.625 21.914-24.627 21.914-45.107 0-18.022-7.629-32.614-22.835-43.776-15.207-11.162-42.343-23.91-81.408-38.144-36.66-13.056-63.488-28.57-80.538-46.592-17.1-17.971-25.6-41.574-25.6-70.707 0-25.447 8.806-48.589 26.522-69.376 17.664-20.787 41.728-34.304 72.14-40.448V251.34h65.178v46.592c22.323 1.843 42.65 10.803 60.928 26.931 18.33 16.18 30.874 35.072 37.734 56.832l-59.596 24.166a81.92 81.92 0 0 0-24.218-35.84c-11.162-9.625-26.624-14.438-46.54-14.438-21.71 0-38.298 4.66-49.767 13.978-11.52 9.318-17.255 22.016-17.255 38.195 0 16.128 7.168 28.825 21.402 38.144 14.336 9.318 40.038 20.173 77.312 32.563 44.646 16.18 74.445 35.072 89.344 56.832 14.848 21.709 22.323 45.568 22.323 71.68 0 17.971-3.072 33.792-9.267 47.462a109.363 109.363 0 0 1-24.678 34.919c-10.24 9.625-22.221 17.357-35.84 23.245a217.754 217.754 0 0 1-43.776 13.516v46.541h-65.178z"/>
</svg>
