<svg viewBox="0 0 311 78" xmlns="http://www.w3.org/2000/svg" xmlns:xlink="http://www.w3.org/1999/xlink"><defs><path id="a" d="m8 0h295c4.418278 0 8 3.581722 8 8v70h-311v-70c0-4.418278 3.581722-8 8-8z"/><linearGradient id="b" x1="43.698774%" x2="38.518127%" y1="55.49442%" y2="100%"><stop offset="0" stop-color="#1a1a1e"/><stop offset="1" stop-color="#373d36"/></linearGradient><circle id="c" cx="251.5" cy="4.5" r="62.5"/><filter id="d" height="164%" width="164%" x="-32%" y="-30.4%"><feOffset dx="0" dy="2" in="SourceAlpha" result="shadowOffsetOuter1"/><feGaussianBlur in="shadowOffsetOuter1" result="shadowBlurOuter1" stdDeviation="13"/><feColorMatrix in="shadowBlurOuter1" type="matrix" values="0 0 0 0 0   0 0 0 0 0   0 0 0 0 0  0 0 0 0.102300044 0"/></filter><linearGradient id="e" x1="45.62143%" x2="38.518127%" y1="46.985993%" y2="100%"><stop offset="0" stop-color="#151518"/><stop offset="1" stop-color="#28332e"/></linearGradient><linearGradient id="f" x1="71.253421%" x2="60.565924%" y1="-20.407584%" y2="29.656587%"><stop offset="0" stop-color="#373d36"/><stop offset="1" stop-color="#1c1c1f"/></linearGradient><linearGradient id="g" x1="100%" x2="3.965529%" y1="42.170108%" y2="50%"><stop offset="0" stop-color="#e7e368"/><stop offset="1" stop-color="#41f5cf"/></linearGradient><filter id="h" height="500%" width="327.3%" x="-113.6%" y="-200%"><feGaussianBlur in="SourceGraphic" stdDeviation="50"/></filter><path id="i" d="m79.5139974 57.9031156c.9406292-.9406292.9406292-2.4656905 0-3.4063197.9406292.9406292 2.4656904.9406292 3.4063196 0-.9406292.9406292-.9406292 2.4656905 0 3.4063197-.9406292-.9406292-2.4656904-.9406292-3.4063196 0z"/><filter id="j" height="1421.1%" width="1421.1%" x="-660.5%" y="-660.5%"><feOffset dx="0" dy="0" in="SourceAlpha" result="shadowOffsetOuter1"/><feGaussianBlur in="shadowOffsetOuter1" result="shadowBlurOuter1" stdDeviation="7.5"/><feColorMatrix in="shadowBlurOuter1" type="matrix" values="0 0 0 0 1   0 0 0 0 1   0 0 0 0 1  0 0 0 1 0"/></filter><path id="k" d="m262.513997 18.9031156c.94063-.9406292.94063-2.4656905 0-3.4063197.94063.9406292 2.465691.9406292 3.40632 0-.940629.9406292-.940629 2.4656905 0 3.4063197-.940629-.9406292-2.46569-.9406292-3.40632 0z"/><filter id="l" height="1421.1%" width="1421.1%" x="-660.5%" y="-660.5%"><feOffset dx="0" dy="0" in="SourceAlpha" result="shadowOffsetOuter1"/><feGaussianBlur in="shadowOffsetOuter1" result="shadowBlurOuter1" stdDeviation="7.5"/><feColorMatrix in="shadowBlurOuter1" type="matrix" values="0 0 0 0 1   0 0 0 0 1   0 0 0 0 1  0 0 0 1 0"/></filter><path id="m" d="m135.755616 17.9139661c1.549271-1.5492716 1.549271-4.0611372 0-5.6104088 1.549271 1.5492716 4.061137 1.5492716 5.610409 0-1.549272 1.5492716-1.549272 4.0611372 0 5.6104088-1.549272-1.5492716-4.061138-1.5492716-5.610409 0z"/><filter id="n" height="902.1%" width="902.1%" x="-401%" y="-401%"><feOffset dx="0" dy="0" in="SourceAlpha" result="shadowOffsetOuter1"/><feGaussianBlur in="shadowOffsetOuter1" result="shadowBlurOuter1" stdDeviation="7.5"/><feColorMatrix in="shadowBlurOuter1" type="matrix" values="0 0 0 0 0.815686275   0 0 0 0 0.964705882   0 0 0 0 0.91372549  0 0 0 1 0"/></filter><path id="o" d="m281.755616 62.9139661c1.549271-1.5492716 1.549271-4.0611372 0-5.6104088 1.549271 1.5492716 4.061137 1.5492716 5.610409 0-1.549272 1.5492716-1.549272 4.0611372 0 5.6104088-1.549272-1.5492716-4.061138-1.5492716-5.610409 0z"/><filter id="p" height="902.1%" width="902.1%" x="-401%" y="-401%"><feOffset dx="0" dy="0" in="SourceAlpha" result="shadowOffsetOuter1"/><feGaussianBlur in="shadowOffsetOuter1" result="shadowBlurOuter1" stdDeviation="7.5"/><feColorMatrix in="shadowBlurOuter1" type="matrix" values="0 0 0 0 0.815686275   0 0 0 0 0.964705882   0 0 0 0 0.91372549  0 0 0 1 0"/></filter><path id="q" d="m32.7301308 15.5820878c.9406292-.9406292.9406292-2.4656905 0-3.4063197.9406292.9406292 2.4656904.9406292 3.4063196 0-.9406292.9406292-.9406292 2.4656905 0 3.4063197-.9406292-.9406292-2.4656904-.9406292-3.4063196 0z"/><filter id="r" height="1421.1%" width="1421.1%" x="-660.5%" y="-660.5%"><feOffset dx="0" dy="0" in="SourceAlpha" result="shadowOffsetOuter1"/><feGaussianBlur in="shadowOffsetOuter1" result="shadowBlurOuter1" stdDeviation="7.5"/><feColorMatrix in="shadowBlurOuter1" type="matrix" values="0 0 0 0 1   0 0 0 0 1   0 0 0 0 1  0 0 0 1 0"/></filter><path id="s" d="m198.86404 43.515276c2.600563-2.6005631 2.600563-6.8169089 0-9.417472 2.600563 2.6005631 6.816908 2.6005631 9.417472 0-2.600564 2.6005631-2.600564 6.8169089 0 9.417472-2.600564-2.6005631-6.816909-2.6005631-9.417472 0z"/><filter id="t" height="577.8%" width="577.8%" x="-238.9%" y="-238.9%"><feOffset dx="0" dy="0" in="SourceAlpha" result="shadowOffsetOuter1"/><feGaussianBlur in="shadowOffsetOuter1" result="shadowBlurOuter1" stdDeviation="7.5"/><feColorMatrix in="shadowBlurOuter1" type="matrix" values="0 0 0 0 1   0 0 0 0 1   0 0 0 0 1  0 0 0 1 0"/></filter><path id="u" d="m121.991145 47.137429c1.549272-1.5492717 1.549272-4.0611373 0-5.6104089 1.549272 1.5492716 4.061137 1.5492716 5.610409 0-1.549272 1.5492716-1.549272 4.0611372 0 5.6104089-1.549272-1.5492717-4.061137-1.5492717-5.610409 0z"/><filter id="v" height="902.1%" width="902.1%" x="-401%" y="-401%"><feOffset dx="0" dy="0" in="SourceAlpha" result="shadowOffsetOuter1"/><feGaussianBlur in="shadowOffsetOuter1" result="shadowBlurOuter1" stdDeviation="7.5"/><feColorMatrix in="shadowBlurOuter1" type="matrix" values="0 0 0 0 0.815686275   0 0 0 0 0.964705882   0 0 0 0 0.91372549  0 0 0 1 0"/></filter><path id="w" d="m208.834752 7.76994589c1.549272-1.54927163 1.549272-4.06113723 0-5.61040886 1.549272 1.54927163 4.061137 1.54927163 5.610409 0-1.549272 1.54927163-1.549272 4.06113723 0 5.61040886-1.549272-1.54927163-4.061137-1.54927163-5.610409 0z"/><filter id="x" height="902.1%" width="902.1%" x="-401%" y="-401%"><feOffset dx="0" dy="0" in="SourceAlpha" result="shadowOffsetOuter1"/><feGaussianBlur in="shadowOffsetOuter1" result="shadowBlurOuter1" stdDeviation="7.5"/><feColorMatrix in="shadowBlurOuter1" type="matrix" values="0 0 0 0 0.815686275   0 0 0 0 0.964705882   0 0 0 0 0.91372549  0 0 0 1 0"/></filter><mask id="y" fill="#fff"><use fill="#fff" fill-rule="evenodd" xlink:href="#a"/></mask></defs><g fill="none" fill-rule="evenodd"><use fill="#1a1a1e" xlink:href="#a"/><g mask="url(#y)"><use fill="#000" filter="url(#d)" xlink:href="#c"/><use fill="url(#b)" fill-rule="evenodd" xlink:href="#c"/></g><circle cx="139.5" cy="71.5" fill="url(#e)" mask="url(#y)" r="32.5"/><circle cx="34.5" cy="83.5" fill="url(#f)" mask="url(#y)" r="55.5"/><g stroke="#404741" stroke-width=".5"><circle cx="280.5" cy="4.5" mask="url(#y)" r="62.25"/><circle cx="142.454545" cy="85.909091" mask="url(#y)" r="33.840909"/><circle cx="28.420455" cy="90.549242" mask="url(#y)" r="54.200758"/><circle cx="272.5" cy="-2.5" mask="url(#y)" r="62.25"/><circle cx="138.090909" cy="82.090909" mask="url(#y)" r="33.840909"/></g><path d="m40-47h116c4.418278 0 8 3.581722 8 8v67h-132v-67c0-4.418278 3.581722-8 8-8z" fill="url(#g)" filter="url(#h)" mask="url(#y)" opacity=".299293"/><circle cx="21.450758" cy="84.450758" mask="url(#y)" r="54.200758" stroke="#404741" stroke-width=".5"/><g mask="url(#y)" transform="matrix(.37460659 -.92718385 .92718385 .37460659 -1.315017 110.450319)"><use fill="#000" filter="url(#j)" xlink:href="#i"/><use fill="#fff" fill-rule="evenodd" xlink:href="#i"/></g><g mask="url(#y)" opacity=".6" transform="matrix(.37460659 -.92718385 .92718385 .37460659 149.292146 255.734621)"><use fill="#000" filter="url(#l)" xlink:href="#k"/><use fill="#fff" fill-rule="evenodd" xlink:href="#k"/></g><g mask="url(#y)" transform="matrix(.7313537 -.68199836 .68199836 .7313537 26.9197 98.557165)"><use fill="#000" filter="url(#n)" xlink:href="#m"/><use fill="#d0ffee" fill-rule="evenodd" xlink:href="#m"/></g><g mask="url(#y)" transform="matrix(.7313537 -.68199836 .68199836 .7313537 35.452134 210.218009)"><use fill="#000" filter="url(#p)" xlink:href="#o"/><use fill="#d0ffee" fill-rule="evenodd" xlink:href="#o"/></g><g mask="url(#y)" transform="matrix(.37460659 -.92718385 .92718385 .37460659 8.666035 40.605782)"><use fill="#000" filter="url(#r)" xlink:href="#q"/><use fill="#fff" fill-rule="evenodd" xlink:href="#q"/></g><g mask="url(#y)" transform="matrix(.7313537 -.68199836 .68199836 .7313537 28.223076 149.261533)"><use fill="#000" filter="url(#t)" xlink:href="#s"/><use fill="#fff" fill-rule="evenodd" xlink:href="#s"/></g><g mask="url(#y)" transform="matrix(.54463904 -.83867057 .83867057 .54463904 19.647254 124.85019)"><use fill="#000" filter="url(#v)" xlink:href="#u"/><use fill="#d0ffee" fill-rule="evenodd" xlink:href="#u"/></g><g mask="url(#y)" transform="matrix(.7313537 -.68199836 .68199836 .7313537 53.470346 145.671862)"><use fill="#000" filter="url(#x)" xlink:href="#w"/><use fill="#d0ffee" fill-rule="evenodd" xlink:href="#w"/></g></g></svg>