<svg viewBox="0 0 26 26" xmlns="http://www.w3.org/2000/svg"><path d="m.5 13c0 4.4658198 2.38248644 8.5924076 6.2499999 10.8253175 3.8675135 2.23291 8.6324866 2.23291 12.5 0 3.8675135-2.2329099 6.2500001-6.3594977 6.2500001-10.8253175 0-6.90355941-5.5964408-12.5-12.5-12.5-6.90355941 0-12.5 5.59644059-12.5 12.5z" fill="#2d3936"/><path d="m19.4309545 7.54954545.0195.0195c.3460204.34612487.3460204.90719332 0 1.25331819l-4.6770454 4.67763636 4.6770454 4.6776364c.3460204.3461248.3460204.9071933 0 1.2533181l-.0195.0195c-.3461248.3460204-.9071933.3460204-1.2533181 0l-4.6776364-4.6770454-4.67763636 4.6770454c-.34612487.3460204-.90719332.3460204-1.25331819 0l-.0195-.0195c-.34602035-.3461248-.34602035-.9071933 0-1.2533181l4.67704545-4.6776364-4.67704545-4.67763636c-.34602035-.34612487-.34602035-.90719332 0-1.25331819l.0195-.0195c.34612487-.34602035.90719332-.34602035 1.25331819 0l4.67763636 4.67704545 4.6776364-4.67704545c.3461248-.34602035.9071933-.34602035 1.2533181 0z" fill="#768984"/></svg>