<svg viewBox="0 0 24 24" xmlns="http://www.w3.org/2000/svg"><circle cx="12" cy="12" fill="#3d4d4a" r="12"/><path d="m6.5 6.5h11v11h-11z" fill="#d8d8d8" opacity="0" stroke="#979797"/><g fill="#41f5cf" transform="translate(6 6)"><path d="m9.76415094 12h-9.33962264c-.22641509 0-.4245283-.1981132-.4245283-.4245283v-9.33962264c0-.22641509.19811321-.4245283.4245283-.4245283h9.33962264c.22641509 0 .42452826.19811321.42452826.4245283v9.33962264c0 .254717-.1698113.4245283-.42452826.4245283z" opacity=".4"/><path d="m11.3852201 10h-9.16666665c-.22222221 0-.41666666-.19444445-.41666666-.41666667v-9.16666666c0-.22222222.19444445-.41666667.41666666-.41666667h9.16666665c.2222222 0 .4166667.19444445.4166667.41666667v9.16666666c0 .22222222-.1944445.41666667-.4166667.41666667z"/></g></svg>