<svg viewBox="0 0 20 20" xmlns="http://www.w3.org/2000/svg"><path d="m10 0c5.52275 0 10 4.47724999 10 10 0 5.52275-4.47725 10-10 10-5.52274999 0-10-4.47725-10-10 0-5.52274999 4.47725001-10 10-10zm-2.02675001 6.95999999c-.18049744-.18348046-.44553867-.25605239-.69432961-.19011698-.24879094.06593542-.44310195.26024643-.50903737.50903737-.06593541.24879094.00663652.51383217.19011698.69432961l2.02675001 2.02675001-2.02675001 2.02675c-.18348046.1804975-.25605239.4455387-.19011698.6943296.06593542.248791.26024643.443102.50903737.5090374s.51383217-.0066365.69432961-.190117l2.02675001-2.02675 2.02675 2.02675c.1804975.1834805.4455387.2560524.6943296.190117.248791-.0659354.443102-.2602464.5090374-.5090374.0659354-.2487909-.0066365-.5138321-.190117-.6943296l-2.02675-2.02675 2.02675-2.02675001c.1834805-.18049744.2560524-.44553867.190117-.69432961s-.2602464-.44310195-.5090374-.50903737c-.2487909-.06593541-.5138321.00663652-.6943296.19011698l-2.02675 2.02675001z" fill="#f54141"/></svg>