<svg xmlns="http://www.w3.org/2000/svg" viewBox="0 0 24 24"><linearGradient id="a" x1="100%" x2="3.966%" y1="25.746%" y2="50%"><stop offset="0" stop-color="#e7e368"/><stop offset="1" stop-color="#41f5cf"/></linearGradient><path fill="url(#a)" d="M24 14.6c0 .6-1.2 1-2.6 1.2-.9-1.7-2.7-3-4.8-3.9.2-.3.4-.5.6-.8h.8c3.1-.1 6 1.8 6 3.5M6.8 11H6c-3.1 0-6 1.9-6 3.6 0 .6 1.2 1 2.6 1.2.9-1.7 2.7-3 4.8-3.9zm5.2 1c2.2 0 4-1.8 4-4s-1.8-4-4-4-4 1.8-4 4 1.8 4 4 4m0 1c-4.1 0-8 2.6-8 5 0 2 8 2 8 2s8 0 8-2c0-2.4-3.9-5-8-5m5.7-3h.3c1.7 0 3-1.3 3-3s-1.3-3-3-3c-.5 0-.9.1-1.3.3.8 1 1.3 2.3 1.3 3.7 0 .7-.1 1.4-.3 2M6 10h.3C6.1 9.4 6 8.7 6 8c0-1.4.5-2.7 1.3-3.7C6.9 4.1 6.5 4 6 4 4.3 4 3 5.3 3 7s1.3 3 3 3"/></svg>
