<svg xmlns="http://www.w3.org/2000/svg" viewBox="0 0 24 24">
  <linearGradient id="a" x1="89.068%" x2="14.03%" y1="25.746%" y2="50%">
    <stop offset="0" stop-color="#e7e368"/>
    <stop offset="1" stop-color="#41f5cf"/>
  </linearGradient>
  <path fill="url(#a)" d="M.797 15.383V11.11a3.798 3.798 0 0 1 3.791-3.792h1.715a4.582 4.582 0 0 1 2.415-1.956v-1.11c0-.073 0-.121.024-.17h-2.39a.891.891 0 0 1-.894-.893v-1.28c0-.483.386-.894.893-.894h2.367v-.12A.89.89 0 0 1 9.61 0h1.353a.89.89 0 0 1 .893.894v.12h2.367c.483 0 .893.387.893.894v1.28a.891.891 0 0 1-.893.893h-2.39c0 .049.023.121.023.17v1.11c.99.362 1.86 1.039 2.415 1.956h6.834c.483 0 .894.387.894.894v2.946a.891.891 0 0 1-.894.893H14.32a4.624 4.624 0 0 1-4.082 2.391 4.624 4.624 0 0 1-4.08-2.39h-.17a.546.546 0 0 0-.555.555v2.801c.41.073.7.435.7.87v1.497a.891.891 0 0 1-.894.893H.894A.891.891 0 0 1 0 17.774v-1.497c.024-.483.362-.846.797-.894z" transform="translate(1.13 2.946)"/>
</svg>
