<svg xmlns="http://www.w3.org/2000/svg" fill="none" viewBox="0 0 532 532">
  <path stroke="#96A0AB" stroke-width="20" d="m292 26.558 168.363 97.204a52 52 0 0 1 26 45.034v194.408a52 52 0 0 1-26 45.034L292 505.442a52 52 0 0 1-52 0L71.637 408.238a52.001 52.001 0 0 1-26-45.034V168.796a52.001 52.001 0 0 1 26-45.034L240 26.558a52 52 0 0 1 52 0Z"/>
  <path fill="#96A0AB" d="M102.592 372c-6.395 0-9.592-2.198-9.592-6.594V167.594c0-4.396 3.197-6.594 9.592-6.594h6.058c2.524 0 4.544.5 6.058 1.499 1.515.799 2.777 2.297 3.786 4.495l58.562 133.973c2.356 5.195 4.543 11.489 6.563 18.882l1.262-.599c-1.347-6.993-2.02-13.587-2.02-19.781V167.594c0-4.396 3.198-6.594 9.592-6.594h3.029c6.395 0 9.592 2.198 9.592 6.594v197.812c0 4.396-3.197 6.594-9.592 6.594h-5.3c-4.712 0-7.741-1.499-9.088-4.496l-60.075-138.468c-2.356-5.196-4.544-11.49-6.563-18.883l-1.262.6c1.346 6.993 2.019 13.587 2.019 19.781v134.872c0 4.396-3.197 6.594-9.592 6.594h-3.029Zm150.15 0c-6.394 0-9.592-2.198-9.592-6.594V170.591c0-3.197.505-5.495 1.515-6.894 1.178-1.398 2.945-2.098 5.301-2.098h65.629c3.197 0 4.796 2.998 4.796 8.992v4.795c0 5.995-1.599 8.992-4.796 8.992h-49.727v74.329h45.435c3.198 0 4.796 2.998 4.796 8.992v4.795c0 5.995-1.598 8.992-4.796 8.992h-45.435v83.92c0 4.396-3.197 6.594-9.592 6.594h-3.534Zm133.24 0c-6.394 0-9.592-2.198-9.592-6.594V184.378h-36.348c-3.197 0-4.796-2.997-4.796-8.992v-4.795c0-5.994 1.599-8.992 4.796-8.992h94.91c1.851 0 3.113.7 3.786 2.098.841 1.399 1.262 3.697 1.262 6.894v4.795c0 3.197-.421 5.495-1.262 6.894-.673 1.399-1.935 2.098-3.786 2.098h-35.844v181.028c0 4.396-3.197 6.594-9.592 6.594h-3.534Z"/>
</svg>
