<svg viewBox="0 0 24 24" xmlns="http://www.w3.org/2000/svg" xmlns:xlink="http://www.w3.org/1999/xlink"><linearGradient id="a" x1="89.068%" x2="14.03%" y1="25.746%" y2="50%"><stop offset="0" stop-color="#e7e368"/><stop offset="1" stop-color="#41f5cf"/></linearGradient><path d="m9.6.267c.593-.356 1.185-.356 1.778 0l8.77 5.096c.593.356.948.948.948 1.54v4.741h-2.252v-3.437c0-.592-.355-1.185-.948-1.54l-6.518-3.793c-.593-.355-1.185-.355-1.778 0l-6.519 3.793c-.474.355-.83.948-.83 1.54v3.437h-2.251v-4.74c0-.593.356-1.185.948-1.541zm9.244 11.97v3.437c0 .593-.355 1.185-.948 1.54l-6.518 3.793c-.593.356-1.185.356-1.778 0l-6.519-3.792c-.474-.237-.83-.83-.83-1.422v-3.437h-2.251v4.74c0 .593.356 1.185.948 1.541l8.77 5.096c.593.356 1.186.356 1.778 0l8.77-5.096c.593-.356.949-.948.949-1.54v-4.741h-2.37v-.119zm-14.933-2.844c0-1.067 1.304-1.304 1.778-.474l2.37 2.844v-2.37c.119-.593.474-.949 1.067-.949h7.822c1.185 0 1.185 1.897 0 1.897h-1.185v4.266c0 1.304-1.896 1.304-1.896 0v-4.266h-3.793v1.185h1.778c1.185 0 1.067 1.66 0 1.66h-1.778v1.421c0 .949-1.067 1.304-1.896.474l-2.37-2.725v2.251c0 1.423-1.897 1.423-1.897.119z" fill="url(#a)" transform="translate(1.5)"/></svg>