<svg viewBox="0 0 23.285 23.285" xmlns="http://www.w3.org/2000/svg" xmlns:xlink="http://www.w3.org/1999/xlink"><linearGradient id="a" x1="0%" x2="92.836%" y1="50%" y2="50%"><stop offset="0" stop-color="#41f5cf"/><stop offset="1" stop-color="#e7e368"/></linearGradient><linearGradient id="b" x1="100%" x2="3.966%" y1="42.676%" y2="50%"><stop offset="0" stop-color="#e7e368"/><stop offset="1" stop-color="#41f5cf"/></linearGradient><g fill="none"><path d="m14.79.986a2.495 2.495 0 0 1 1.746.062 2.5 2.5 0 0 1 1.279 1.19l1.093 2.184c.146.29.38.524.67.67l2.183 1.093c.556.278.967.74 1.19 1.279.224.539.26 1.156.063 1.745l-.77 2.318a1.5 1.5 0 0 0 0 .946l.77 2.318a2.495 2.495 0 0 1 -1.253 3.024l-2.183 1.093a1.5 1.5 0 0 0 -.67.67l-1.093 2.183c-.278.556-.74.967-1.279 1.19a2.495 2.495 0 0 1 -1.745.063l-2.318-.77a1.5 1.5 0 0 0 -.946 0l-2.318.77a2.495 2.495 0 0 1 -3.024-1.253l-1.093-2.183a1.5 1.5 0 0 0 -.67-.67l-2.183-1.093a2.495 2.495 0 0 1 -1.19-1.279 2.495 2.495 0 0 1 -.063-1.745l.77-2.318a1.5 1.5 0 0 0 0-.946l-.77-2.318a2.495 2.495 0 0 1 .062-1.745 2.5 2.5 0 0 1 1.19-1.279l2.184-1.093a1.5 1.5 0 0 0 .67-.67l1.093-2.183c.278-.556.74-.967 1.279-1.19a2.495 2.495 0 0 1 1.745-.064l2.318.77a1.5 1.5 0 0 0 .946 0z" stroke="url(#a)" transform="translate(-.358 -.358)"/><path d="m2.91 20.591-.603-1.813a2 2 0 0 1 1.002-2.42l1.852-.927a2 2 0 0 0 .892-.893l.927-1.85a2 2 0 0 1 2.42-1.003l1.965.653a2 2 0 0 0 1.262 0l1.965-.653a2 2 0 0 1 2.42 1.002l.926 1.851a2 2 0 0 0 .893.893l1.851.927a2 2 0 0 1 1.002 2.42l-.228.687a1.999 1.999 0 0 1 -2.413 1.303c-1.481-.396-2.907-.496-4.278-.3-3.946.56-3.946 1.92-7.009 1.92-1.458 0-2.679-.188-3.66-.563a2.002 2.002 0 0 1 -1.186-1.235z" fill="url(#b)" transform="matrix(1 0 0 -1 -.358 33.168)"/></g></svg>