<svg viewBox="0 0 56 56" xmlns="http://www.w3.org/2000/svg" xmlns:xlink="http://www.w3.org/1999/xlink"><linearGradient id="a" x1="100%" x2="3.965529%" y1="25.746127%" y2="50%"><stop offset="0" stop-color="#e7e368"/><stop offset="1" stop-color="#41f5cf"/></linearGradient><g fill="none" fill-rule="evenodd"><circle cx="28" cy="28" fill="#2d3936" r="28"/><g transform="matrix(0 1 -1 0 49 7)"><path d="m21 0c-11.59809677 0-21 9.40212903-21 21 0 11.5980968 9.40212903 21 21 21 11.597871 0 21-9.4019032 21-21 0-11.59787097-9.402129-21-21-21z" fill="url(#a)"/><g fill="#12121a" fill-rule="nonzero"><path d="m9.26574196 15.0985484c0-.6338387.62796774-.9549355.6279677-.9549355-.00000005-.0000001 6.57548384-4.66267741 6.71638714-4.76293547 0 0 .3190645-.22490324.652129-.15174195.3974194.08738711.3865807.28925809.3865806.28925809v3.80777423h6.4054516c5.2619678 0 5.3491291 6.0416774 5.3491291 6.0416774 0-1.9209355-5.1820322-2.616871-5.1820323-2.616871h-6.5723226v3.563s.0040645.2883548-.3895161.3716774c-.3649032.077-.7930322-.0799355-.7930322-.0799355l-6.75522585-4.6349032s-.44551609-.2529032-.44551609-.8720645z"/><path d="m32.1058387 27.8631613-6.7224839 4.7667742c-.0618709.0438064-.2377742.1869677-.5200322.1503871-.4229355-.056-.4929355-.2876774-.4929355-.2876774v-3.8111613h-6.4379677c-5.2667097 0-5.3536452-6.0470968-5.3536452-6.0470968 0 1.9231935 5.1865484 2.6195806 5.1865484 2.6195806h6.6052903v-3.5666129s.0205484-.240258.4929355-.3630968c.3822903-.0998064.6636451.0706775.6636451.0706775l6.7613226 4.6396451s.4457419.2531291.4457419.872742c0 .6345161-.6284193.9558387-.6284193.9558387z"/></g></g></g></svg>