<svg xmlns="http://www.w3.org/2000/svg" viewBox="0 0 24 24"><linearGradient id="a" x1="100%" x2="3.966%" y1="25.746%" y2="50%"><stop offset="0" stop-color="#e7e368"/><stop offset="1" stop-color="#41f5cf"/></linearGradient><path fill="url(#a)" d="M10.25 9.5a1.75 1.75 0 1 1 3.5 0a1.75 1.75 0 0 1-3.5 0"/><path fill="url(#a)" fill-rule="evenodd" d="M5 9.5a7 7 0 1 1 12.923 3.733l2.727 4.722a.75.75 0 0 1-.796 1.11l-2.616-.52l-.858 2.526a.75.75 0 0 1-1.36.134l-2.72-4.711a7 7 0 0 1-.6 0l-2.72 4.711a.75.75 0 0 1-1.36-.132l-.861-2.52l-2.614.513a.75.75 0 0 1-.795-1.11l2.727-4.723A6.97 6.97 0 0 1 5 9.5m2.086 4.985a7 7 0 0 0 3.027 1.758l-1.607 2.783l-.54-1.579a.75.75 0 0 0-.854-.493l-1.637.322zm6.801 1.758l1.605 2.779l.537-1.581a.75.75 0 0 1 .856-.495l1.638.326l-1.609-2.787a7 7 0 0 1-3.027 1.758M12 6.25a3.25 3.25 0 1 0 0 6.5a3.25 3.25 0 0 0 0-6.5" clip-rule="evenodd"/></svg>
