<svg viewBox="0 0 16 16" xmlns="http://www.w3.org/2000/svg"><g fill="none" fill-rule="evenodd"><path d="m.5.5h15v15h-15z" fill="#d8d8d8" opacity="0" stroke="#979797"/><path d="m15.7823052 14.3206965-2.8560832-2.8042939c.9091897-1.2045804 1.4558544-2.69879722 1.4558544-4.3253644 0-3.97051189-3.2186082-7.1910382-7.1910382-7.1910382-3.97243001.00191812-7.1910382 3.22052631-7.1910382 7.19295632 0 3.97242998 3.21860819 7.19103818 7.1910382 7.19103818 1.82988808 0 3.4948177-.6886057 4.7646143-1.8145431l2.8599194 2.8081301c.2819639.2762096.72505.2647008.9916689-.0268537s.2551102-.7538218-.0249356-1.0300313zm-8.591267-1.2064985c-3.27039748 0-5.92124164-2.6508442-5.92124164-5.92124168 0-3.27039747 2.65084416-5.92124164 5.92124164-5.92124164 3.2703975 0 5.9212416 2.65084417 5.9212416 5.92124164 0 3.27039748-2.6508441 5.92124168-5.9212416 5.92124168z" fill="#fff" fill-rule="nonzero" opacity=".6"/></g></svg>
