<svg viewBox="0 0 72 72" xmlns="http://www.w3.org/2000/svg" xmlns:xlink="http://www.w3.org/1999/xlink"><linearGradient id="a" x1="100%" x2="3.966%" y1="25.746%" y2="50%"><stop offset="0" stop-color="#e7e368"/><stop offset="1" stop-color="#41f5cf"/></linearGradient><circle cx="36" cy="36" fill="url(#a)" opacity=".2" r="36"/><path d="m49.468 10.024c-9.932-11.856-27.589-13.418-39.444-3.492-11.856 9.932-13.418 27.589-3.492 39.444 9.929 11.856 27.589 13.418 39.444 3.492 11.856-9.929 13.418-27.589 3.492-39.444z" fill="url(#a)" transform="translate(8 8)"/><path d="m35.944 49.812c5.382 0 10.349-2.447 13.63-6.717a1.91 1.91 0 1 0 -3.026-2.324 13.28 13.28 0 0 1 -10.604 5.22c-4.141 0-7.98-1.871-10.534-5.133a1.909 1.909 0 0 0 -3.007 2.352 17.086 17.086 0 0 0 13.541 6.6zm-8.588-15.464a2.862 2.862 0 0 1 -2.864-2.864v-3.82a2.864 2.864 0 0 1 5.729 0v3.82a2.866 2.866 0 0 1 -2.865 2.864zm17.184 0a2.864 2.864 0 0 1 -2.864-2.864v-3.82a2.864 2.864 0 0 1 5.729 0v3.82a2.864 2.864 0 0 1 -2.865 2.864z" fill="#12121a"/></svg>