<svg viewBox="0 0 20 20" xmlns="http://www.w3.org/2000/svg"><path d="m10 0c5.52275 0 10 4.47724999 10 10 0 5.52275-4.47725 10-10 10-5.52274999 0-10-4.47725-10-10 0-5.52274999 4.47725001-10 10-10zm4.28 6.96925c-.1407554-.14058035-.331596-.21948056-.5305304-.21934009-.1989343.00014085-.3896632.07931084-.5302196.22009009l-4.46324999 4.47-1.97675002-1.96849999c-.29412812-.28836248-.76577114-.28555582-1.05644657.00628671-.29067543.29184254-.29159216.76349298-.00205341 1.05646328l2.50749998 2.49725c.29323123.2920394.76759648.2913682 1.06000001-.0015l4.9925-4.99999999c.1405803-.14075538.2194806-.33159596.2193401-.53053035-.0001409-.1989344-.0793109-.38966322-.2200901-.53021966z" fill="#41f56d"/></svg>