<svg viewBox="0 0 72 72" xmlns="http://www.w3.org/2000/svg" xmlns:xlink="http://www.w3.org/1999/xlink"><linearGradient id="a" x1="100%" x2="3.965529%" y1="25.746127%" y2="50%"><stop offset="0" stop-color="#e7e368"/><stop offset="1" stop-color="#41f5cf"/></linearGradient><circle cx="36" cy="36" fill="url(#a)" opacity=".2" r="36"/><g transform="translate(8.228571 8.228571)"><path d="m27.7714286 0c-15.3668572 0-27.7714286 12.4045714-27.7714286 27.7714286 0 15.3668571 12.4045714 27.7714285 27.7714286 27.7714285 15.3668571 0 27.7714285-12.4045714 27.7714285-27.7714285 0-15.3668572-12.4045714-27.7714286-27.7714285-27.7714286z" fill="url(#a)"/><g fill="#12121a"><path d="m12.7748571 20.1805714c0-.9257143.7405715-1.4811429.7405715-1.4811428 0 0 8.5165714-5.7394286 8.8868571-5.9245715 0 0 .1851428-.1851428.7405715-.1851428.3702857.1851428.3702857.5554286.3702856.5554286v4.6285714h7.9611429c7.0354286 0 7.0354286 7.5908571 7.0354286 7.5908571 0-2.2217142-6.6651429-3.3325714-6.6651429-3.3325714h-8.3314286v4.6285714s0 .3702858-.3702856.3702858c-.3702858.1851428-.9257143 0-.9257143 0l-8.7017143-5.7394286c-.3702858.1851428-.7405715-.3702858-.7405715-1.1108572z"/><path d="m42.2125714 36.6582857s-8.3314285 5.7394286-8.5165714 5.9245715c0 0-.1851428.1851428-.7405714.1851428-.7405715-.1851428-.7405715-.3702857-.7405715-.3702857v-5.184h-8.3314285c-7.0354286 0-7.0354286-7.5908572-7.0354286-7.5908572 0 2.592 6.6651428 3.5177143 6.6651428 3.5177143h8.5165715v-4.6285714s0-.1851429.3702857-.1851429c.3702857-.1851428.9257143 0 .9257143 0l8.8868571 5.7394286s.3702858.3702857.3702858 1.1108571c.1851428 1.1108572-.5554286 1.4811429-.3702858 1.4811429z"/></g></g></svg>