<svg xmlns="http://www.w3.org/2000/svg" viewBox="0 0 64 64"><linearGradient id="a" x1="100%" x2="3.966%" y1="25.746%" y2="50%"><stop offset="0" stop-color="#e7e368"/><stop offset="1" stop-color="#41f5cf"/></linearGradient><path fill="url(#a)" d="M52 2H12C6.477 2 2 6.477 2 12v40c0 5.523 4.477 10 10 10h40c5.523 0 10-4.477 10-10V12c0-5.523-4.477-10-10-10M23.23 44.365h-4.877L10 19.72h5.514l5.363 18.71l5.412-18.71h5.363zm28.153-1.595Q48.767 45 43.988 45q-4.878 0-7.672-2.197q-2.795-2.2-2.795-6.045h4.928q.239 1.688.939 2.524q1.283 1.522 4.398 1.521q1.863 0 3.029-.401q2.207-.768 2.207-2.859q0-1.22-1.082-1.889Q46.858 35 44.51 34.5l-2.674-.584q-3.943-.871-5.418-1.891q-2.496-1.705-2.496-5.334q0-3.31 2.441-5.501Q38.806 19 43.541 19q3.953 0 6.742 2.065t2.928 5.994H48.25q-.138-2.224-1.994-3.16q-1.237-.619-3.074-.62q-2.044 0-3.266.804q-1.22.803-1.219 2.24q0 1.321 1.203 1.975q.773.434 3.281 1.019l4.336 1.021q2.849.669 4.271 1.789q2.213 1.737 2.212 5.032q.001 3.377-2.617 5.611"/></svg>
