<svg xmlns="http://www.w3.org/2000/svg" viewBox="0 0 24 24"><linearGradient id="a" x1="89.068%" x2="14.03%" y1="25.746%" y2="50%"><stop offset="0" stop-color="#e7e368"/><stop offset="1" stop-color="#41f5cf"/></linearGradient><path fill="url(#a)" d="M16 13.5q.65 0 1.075-.425T17.5 12q0-.65-.425-1.075T16 10.5q-.65 0-1.075.425T14.5 12q0 .65.425 1.075T16 13.5ZM13 17q-.825 0-1.413-.588T11 15V9q0-.825.588-1.413T13 7h7q.825 0 1.413.588T22 9v6q0 .825-.588 1.413T20 17h-7Zm-8 4q-.825 0-1.413-.588T3 19V5q0-.825.588-1.413T5 3h14q.825 0 1.413.588T21 5h-8q-1.775 0-2.888 1.113T9 9v6q0 1.775 1.113 2.888T13 19h8q0 .825-.588 1.413T19 21H5Z"/></svg>
