<svg viewBox="0 0 20 20" xmlns="http://www.w3.org/2000/svg"><path d="m10 0c5.52275 0 10 4.47724999 10 10 0 5.52275-4.47725 10-10 10-5.52274999 0-10-4.47725-10-10 0-5.52274999 4.47725001-10 10-10zm-.00000001 12.75c-.55228474 0-1 .4477152-1 1s.44771526 1 1 1c.55228471 0 1.00000001-.4477153 1.00000001-1s-.4477153-1-1.00000001-1zm0-8.49999999c-.55228473 0-1 .44771524-1 1v5.49999999c0 .5522848.44771526 1 1 1 .55228481 0 1.00000001-.4477152 1.00000001-1v-5.49999999c0-.55228476-.4477153-1-1.00000001-1z" fill="#f5b741"/></svg>