<svg xmlns="http://www.w3.org/2000/svg" fill="none" viewBox="0 0 24 24">
  <path fill="#1f2937" d="M12 24c6.627 0 12-5.373 12-12S18.627 0 12 0 0 5.373 0 12s5.373 12 12 12z"/>
  <path fill="#2d374b" d="m13.77 11.202 1.155-1.959 3.111 4.846.002.93-.01-6.4a.482.482 0 0 0-.223-.383l-5.602-3.222a.494.494 0 0 0-.478.03l-.02.013-5.437 3.15-.02.01a.48.48 0 0 0-.28.41l.007 5.215L8.873 9.35c.365-.596 1.16-.788 1.898-.777l.866.022-5.103 8.185.601.346L12.3 8.604l2.282-.008-5.15 8.737 2.146 1.235.256.147a.493.493 0 0 0 .346.007l5.68-3.292-1.086.63zm.441 6.343-2.168-3.403 1.324-2.246 2.847 4.488z"/>
  <path fill="#28a0f0" d="m12.043 14.142 2.168 3.403 2.003-1.16-2.847-4.489zm5.995.878-.002-.93-3.11-4.847-1.155 1.959 3.004 4.857 1.085-.629a.481.481 0 0 0 .178-.35z"/>
  <path fill="#fff" d="m5 15.896 1.534.884 5.103-8.184-.866-.023c-.738-.01-1.533.181-1.898.777l-2.898 4.492L5 15.34zm9.582-7.3-2.282.008-5.165 8.522 1.805 1.04.491-.833z"/>
  <path fill="#96bedc" d="M19 8.584a1.454 1.454 0 0 0-.682-1.17l-5.676-3.263c-.4-.201-.9-.202-1.302 0-.047.024-5.518 3.197-5.518 3.197A1.455 1.455 0 0 0 5 8.581v6.759l.975-1.498-.009-5.215a.48.48 0 0 1 .2-.362c.027-.02 5.592-3.24 5.61-3.25a.494.494 0 0 1 .427-.001l5.602 3.222a.482.482 0 0 1 .223.384v6.46a.471.471 0 0 1-.167.35l-1.087.63-.56.324-2.003 1.161-2.03 1.177a.493.493 0 0 1-.347-.007l-2.403-1.382-.49.833 2.159 1.243a45.446 45.446 0 0 0 .343.191c.153.075.374.118.573.118.182 0 .36-.034.529-.1l5.9-3.416c.338-.262.537-.658.555-1.087z"/>
</svg>
