<svg fill="none" viewBox="0 0 24 24" xmlns="http://www.w3.org/2000/svg"><path d="m12 24c6.6274 0 12-5.3726 12-12 0-6.62742-5.3726-12-12-12-6.62742 0-12 5.37258-12 12 0 6.6274 5.37258 12 12 12z" fill="#003057"/><path d="m9.52024 19c-.14032-.0001-.27857-.033-.40337-.0961-.12481-.0631-.23259-.1546-.31444-.2668l-3.51215-4.7931h-2.29028v-1.7447h2.74361c.1402-.0002.27842.0326.40324.0955s.23263.1542.31454.2663l2.86995 3.9149 4.37866-9.85377c.069-.15536.1824-.28753.3265-.3803.144-.09276.3125-.14209.4845-.14193h5.479v1.74466h-4.8993l-4.7683 10.73194c-.0628.1415-.1627.2641-.2895.355-.12674.091-.27574.1471-.43181.1626-.03145.0017-.06297.0017-.09442 0" fill="#00c389"/><path d="m-.00000052 12.0001c-.00000029 6.6274 5.37258052 12 12.00000052 12 6.6274 0 12-5.3726 12-12s-5.3726-11.99997816-12-11.99997845c-6.62742-.00000029-12.00000023 5.37257845-12.00000052 11.99997845z" fill="#202336"/><path d="m12 23.5001c-6.35128 0-11.500001-5.1487-11.500001-11.5.000001-6.35125 5.148721-11.499979 11.500001-11.499978 6.3513 0 11.5 5.148728 11.5 11.499978 0 6.3513-5.1487 11.5-11.5 11.5z" stroke="#fff" stroke-opacity=".3"/><path clip-rule="evenodd" d="m8.8928 10.7232 3.1072-3.1072 3.1088 3.1088 1.808-1.808-4.9168-4.9168-4.9152 4.9152zm-4.8928 1.2768 1.808-1.808 1.808 1.808-1.808 1.808zm4.8928 1.2768 3.1072 3.1072 3.1088-3.1088 1.808 1.8072-4.9168 4.9176-4.9152-4.9152-.0024-.0024zm7.4912-1.2768 1.808-1.808 1.808 1.808-1.808 1.808zm-2.5504-.0016h.0016v.0016l-1.8352 1.8352-1.8328-1.832-.0032-.0032.0032-.0024.3208-.3216.156-.156 1.356-1.3552 1.8344 1.8344z" fill="#f6c83a" fill-rule="evenodd"/></svg>
