<svg fill="none" viewBox="0 0 24 24" xmlns="http://www.w3.org/2000/svg"><path d="m12 24c6.6274 0 12-5.3726 12-12 0-6.62742-5.3726-12-12-12-6.62742 0-12 5.37258-12 12 0 6.6274 5.37258 12 12 12z" fill="#627eea"/><path d="m23.5 12c0 6.3513-5.1487 11.5-11.5 11.5-6.35127 0-11.5-5.1487-11.5-11.5 0-6.35127 5.14873-11.5 11.5-11.5 6.3513 0 11.5 5.14873 11.5 11.5z" stroke="#000" stroke-opacity=".097"/><g fill="#fff"><path d="m11.9997 4v5.91456l4.999 2.23384z" fill-opacity=".602"/><path d="m11.9997 4-4.9997 8.1484 4.9997-2.23384z"/><path d="m11.9997 15.981v4.0189l5.0024-6.9208z" fill-opacity=".602"/><path d="m11.9997 19.9999v-4.0195l-4.9997-2.9013z"/><path d="m11.9997 15.0511 4.999-2.9026-4.999-2.23248z" fill-opacity=".2"/><path d="m7 12.1485 4.9997 2.9026v-5.13508z" fill-opacity=".602"/></g></svg>
