<svg xmlns="http://www.w3.org/2000/svg" fill="none" viewBox="0 0 24 24">
  <path fill="#50AF95" fill-rule="evenodd" d="M0 12C0 5.373 5.373 0 12 0s12 5.373 12 12-5.373 12-12 12S0 18.627 0 12Z" clip-rule="evenodd"/>
  <path stroke="#000" stroke-opacity=".097" d="M23.5 12c0 6.351-5.149 11.5-11.5 11.5S.5 18.351.5 12 5.649.5 12 .5 23.5 5.649 23.5 12Z"/>
  <path fill="#fff" fill-rule="evenodd" d="M13.424 12.947c-.08.006-.49.03-1.407.03-.73 0-1.247-.021-1.429-.03-2.818-.124-4.921-.616-4.921-1.205 0-.588 2.103-1.08 4.921-1.205v1.92c.185.013.712.045 1.442.045.875 0 1.313-.037 1.392-.044v-1.92c2.812.126 4.91.617 4.91 1.204 0 .588-2.098 1.08-4.91 1.204h.002Zm0-2.608V8.621h3.925V6H6.664v2.62h3.924v1.719c-3.19.146-5.588.78-5.588 1.538 0 .759 2.398 1.391 5.588 1.539v5.507h2.836v-5.51c3.182-.146 5.576-.778 5.576-1.536s-2.392-1.39-5.576-1.538Z" clip-rule="evenodd"/>
</svg>
