<svg xmlns="http://www.w3.org/2000/svg" fill="none" viewBox="0 0 24 24">
  <path fill="#2775C9" d="M12 24c6.627 0 12-5.373 12-12S18.627 0 12 0 0 5.373 0 12s5.373 12 12 12Z"/>
  <path stroke="#000" stroke-opacity=".097" d="M23.5 12c0 6.351-5.149 11.5-11.5 11.5S.5 18.351.5 12 5.649.5 12 .5 23.5 5.649 23.5 12Z"/>
  <path fill="#fff" fill-rule="evenodd" d="M11.28 7.545v-.75a.72.72 0 0 1 1.44 0v.747c1.303.196 2.196.937 2.435 1.992a.425.425 0 0 1-.415.519h-.39a.814.814 0 0 1-.736-.467c-.248-.528-.837-.832-1.62-.832-.982 0-1.643.48-1.643 1.203 0 .577.439.914 1.504 1.167l.998.228c1.763.403 2.509 1.131 2.509 2.425 0 1.433-1 2.402-2.642 2.63v.868a.72.72 0 0 1-1.44 0v-.854c-1.454-.175-2.436-.945-2.666-2.122a.357.357 0 0 1 .35-.426h.592c.267 0 .511.154.626.396.272.572.969.927 1.841.927 1.047 0 1.775-.517 1.775-1.239 0-.626-.445-.987-1.54-1.245l-1.125-.265c-1.6-.367-2.358-1.137-2.358-2.376 0-1.335 1.007-2.294 2.505-2.526ZM3 12c0-3.97 2.592-7.34 6.183-8.517a.432.432 0 0 1 .567.41v.254a.95.95 0 0 1-.593.88C6.394 6.146 4.447 8.847 4.447 12s1.945 5.852 4.706 6.972c.36.146.597.497.597.886v.212a.46.46 0 0 1-.604.435C5.574 19.317 3 15.958 3 12Zm18 0c0 3.949-2.562 7.3-6.12 8.497a.477.477 0 0 1-.63-.453v-.17c0-.398.241-.757.61-.908 2.754-1.123 4.694-3.819 4.694-6.966 0-3.144-1.936-5.837-4.686-6.962a.995.995 0 0 1-.618-.922v-.154a.481.481 0 0 1 .635-.456C18.44 4.703 21 8.054 21 12Z" clip-rule="evenodd"/>
</svg>
