<svg xmlns="http://www.w3.org/2000/svg" version="1.0" viewBox="0 0 800 800">
  <circle cx="400" cy="400" r="400" fill="#ff0420"/>
  <path fill="#fff" d="M121.494 175.764c-8.772 8.598-17.022 18.846-21.452 26.75-1.39 2.344-2.953 4.95-3.56 5.645-.869 1.129-2.78 5.298-6.514 14.33-5.124 12.506-8.164 35.522-6.167 47.333.522 3.127 1.303 8.338 1.824 11.551.521 3.3 1.303 6.6 1.65 7.382.435.869 1.65 3.822 2.693 6.688 5.124 13.462 17.022 29.529 29.702 40.038 3.648 2.953 12.42 9.032 13.202 9.032.434 0 1.476.521 2.17 1.13.783.607 3.91 2.257 7.036 3.56 3.126 1.303 6.253 2.692 6.948 3.04.781.434 2.692 1.042 4.342 1.39 1.65.347 3.474.955 3.995 1.389.435.434 4.603 1.39 9.12 2.258 7.73 1.476 20.93 1.563 231.802 1.563 213.216 0 224.073-.087 232.758-1.563 5.037-.955 9.466-1.998 9.987-2.432.435-.434 1.564-.781 2.432-.781.956 0 5.472-1.65 10.075-3.648 13.983-6.08 25.013-13.549 34.48-23.45 21.277-22.06 30.223-47.593 27.27-77.47-.521-5.298-1.303-11.03-1.737-12.68a404.608 404.608 0 0 1-1.737-6.948c-.608-2.171-1.39-4.69-1.737-5.645-4.342-10.335-6.166-14.07-9.727-20.15-2.258-3.907-6.6-10.16-9.467-13.895-5.124-6.427-20.41-21.973-21.712-21.973-.348 0-.174 1.476.26 3.213 1.216 4.603 4.082 20.323 5.038 27.619.955 7.555.955 26.315 0 32.134-1.216 7.035-3.388 15.893-4.256 17.544-.521.868-1.65 3.387-2.692 5.645-7.643 17.804-26.75 33.871-45.683 38.648-5.646 1.39-19.715 1.477-221.815 1.477-243.18 0-220.338.694-235.798-6.775-13.982-6.86-28.66-22.841-34.653-38.04-1.216-3.127-2.258-6.6-2.258-7.556 0-.955-.347-1.91-.781-2.171-.435-.26-1.303-3.908-1.824-8.077-1.216-8.512-.608-35.261.868-41.949.521-2.171 1.477-6.774 2.172-10.335.694-3.56 1.65-7.556 2.258-8.945.52-1.39.781-2.693.608-2.953-.261-.174-4.343 3.474-9.12 8.077zm-3.474 228.85c6.167 11.03 17.805 26.315 26.055 34.131 4.516 4.343 8.685 8.25 9.38 8.685 2.953 2.171 13.549 8.077 15.546 8.685 1.216.348 2.606.956 3.04 1.303 1.129.782 14.33 4.69 19.975 5.906 2.432.52 16.676 1.216 31.7 1.476 27.185.521 31.875.782 35.175 2.171.955.348 3.474 1.303 5.645 2.085 7.209 2.518 17.544 9.293 23.884 15.633 12.854 12.854 19.454 27.097 21.191 45.683.521 5.037.869 35.869.869 68.785 0 36.737.434 62.706.955 67.309 2.519 20.844 13.201 38.735 31.7 53.325 8.685 6.862 24.318 15.547 27.88 15.547 1.041 0 1.215-17.37 1.215-111.776 0-76.602-.26-113.426-.955-116.987-2.519-14.07-4.777-21.278-10.857-33.958-8.337-17.718-28.4-40.125-46.377-51.85-13.636-8.858-31.44-17.196-36.825-17.196-1.042 0-2.258-.347-2.779-.782-2.78-2.605-12.767-3.04-85.808-3.3l-73.735-.347 3.126 5.471v.001zm419.659-4.343c-12.42 1.042-21.452 3.821-36.65 11.203-15.72 7.73-28.922 17.805-42.036 32.135-15.025 16.501-26.49 37.519-29.529 54.194-.434 2.345-1.129 6.08-1.65 8.25-.782 3.649-1.303 229.285-.521 229.285 1.476 0 12.593-4.864 17.11-7.47 21.799-12.593 35.608-30.05 41.253-52.023 2.084-7.816 2.084-7.816 2.171-72.085 0-35.348.348-67.57.782-71.651 1.91-20.41 8.337-34.393 21.886-47.42 9.032-8.772 17.37-13.81 29.355-17.804 5.124-1.737 8.251-1.911 35.174-2.52 33.438-.78 39.257-1.562 51.242-6.86 10.161-4.603 12.94-6.08 17.804-9.467 9.38-6.687 18.152-15.807 25.187-26.229.694-1.042 2.518-3.56 3.908-5.558 2.779-3.648 9.988-15.633 9.988-16.501 0-.782-136.094-.348-145.474.52v.001z"/>
</svg>
