<svg viewBox="0 0 22 22" xmlns="http://www.w3.org/2000/svg" xmlns:xlink="http://www.w3.org/1999/xlink"><linearGradient id="a" x1="91.439987%" x2="7.388301%" y1="79.266667%" y2="33.93587%"><stop offset="0" stop-color="#e7e368"/><stop offset="1" stop-color="#41f5cf"/></linearGradient><g fill="none" fill-rule="evenodd"><path d="m0 0h22v22h-22z" fill="#000" fill-rule="nonzero" opacity="0"/><g transform="translate(2 1.646091)"><path d="m14.7078189 3.01646091c1.8182214 0 3.2921811 1.47395966 3.2921811 3.29218106v8.41152263c0 1.8182214-1.4739597 3.2921811-3.2921811 3.2921811h-11.13991767c-1.8182214 0-3.29218106-1.4739597-3.29218106-3.2921811v-11.70370369zm-2.355965 5.18922457c-.2909866-.04784789-.585335.06364067-.771607.29225691l-1.62551439 1.98765431-1.13580248-1.37037037c-.14371328-.17349413-.35226201-.28049482-.57701034-.29604834-.22474832-.01555351-.44604819.06169987-.61229006.21374382l-2.34156379 2.13991769c-.16127257.1477196-.25712149.3535518-.26638669.572056-.00926519.2185042.06881527.4317114.21700397.5925531.15893956.1622476.37786102.2516033.60493828.2469135.19987734.0041414.394429-.06461.54732509-.1934156l1.70370371-1.5596708 1.23456791 1.4773663c.15667201.1880988.38894466.2966938.63374486.2962974.24547763-.0006184.47786683-.110777.63374483-.3004126l2.255144-2.76131692c.1882438-.22699543.2406578-.53735561.1373985-.81358043-.1032593-.27622483-.3464098-.47609609-.6373964-.52394397z" fill="url(#a)"/><path d="m11.3621399 2h-10.53909464c-.45455535 0-.82304526-.44771526-.82304526-1s.36848991-1 .82304526-1h10.53909464c.4545554 0 .8230453.44771526.8230453 1s-.3684899 1-.8230453 1z" fill="#41f5cf" opacity=".296038"/></g></g></svg>