<svg viewBox="0 0 22 22" xmlns="http://www.w3.org/2000/svg" xmlns:xlink="http://www.w3.org/1999/xlink"><linearGradient id="a" x1="91.439987%" x2="7.388301%" y1="79.428034%" y2="33.847298%"><stop offset="0" stop-color="#e7e368"/><stop offset="1" stop-color="#41f5cf"/></linearGradient><g fill="none" fill-rule="evenodd"><path d="m.5.5h21v21h-21z" fill="#d8d8d8" opacity="0" stroke="#979797"/><g transform="translate(.785714)"><path d="m5.79149679 4.14636462 2.37096554-2.2227802c1.15397459-1.08185118 2.94967217-1.08185118 4.10364677 0l2.3709655 2.2227802c1.1885761 1.11429009 1.8629254 2.67084464 1.8629254 4.30006395 0 1.41029856-1.1432729 2.55357143-2.5535714 2.55357143h-7.46428574c-1.41029856 0-2.55357143-1.14327287-2.55357143-2.55357143 0-1.62921931.67434926-3.18577386 1.86292536-4.30006395z" fill="#41f5cf" opacity=".296038"/><path d="m15.3214286 6 3.0600694 1.71192697c1.2640604.70716664 2.0470734 2.04243189 2.0470734 3.49085633v6.7972167c0 2.209139-1.790861 4-4 4h-12.4285714c-2.209139 0-4-1.790861-4-4v-6.7972167c0-1.44842444.78301304-2.78368969 2.0470734-3.49085633l3.06006946-1.71192697c3.17334469-1.77529773 7.04094104-1.77529773 10.21428574 0zm-8.03571431 6.5714286c-.55228475 0-1 .4477152-1 1v2c0 .5522847.44771525 1 1 1s1-.4477153 1-1v-2c0-.5522848-.44771525-1-1-1zm5.85714281 0c-.5522847 0-1 .4477152-1 1v2c0 .5522847.4477153 1 1 1 .5522848 0 1-.4477153 1-1v-2c0-.5522848-.4477152-1-1-1z" fill="url(#a)"/></g></g></svg>