<svg viewBox="0 0 22 22" xmlns="http://www.w3.org/2000/svg" xmlns:xlink="http://www.w3.org/1999/xlink"><linearGradient id="a"><stop offset="0" stop-color="#e7e368"/><stop offset="1" stop-color="#41f5cf"/></linearGradient><linearGradient id="b" x1="90.936162%" x2="7.906372%" xlink:href="#a" y1="90.885214%" y2="27.558586%"/><linearGradient id="c" x1="91.602337%" x2="6.127284%" xlink:href="#a" y1="93.458995%" y2="6.670822%"/><g fill="none" fill-rule="evenodd"><path d="m.5.5h21v21h-21z" fill="#d8d8d8" opacity="0" stroke="#979797"/><g transform="translate(2 2)"><path d="m15.4637896 0c1.4009654 0 2.5362104 1.14219597 2.5362104 2.55177233v3.40365995c0 1.40957637-1.135245 2.55177233-2.5362104 2.55177233h-3.3829106c-1.4009655 0-2.53621041-1.14219596-2.53621041-2.55177233v-3.40365995c0-1.40957636 1.13524491-2.55177233 2.53621041-2.55177233z" fill="url(#b)" opacity=".3"/><path d="m5.90096542 9.49279539c1.39668588 0 2.52842939 1.14219601 2.52842939 2.55177231v3.40366c0 1.4086167-1.13174351 2.5517723-2.52842939 2.5517723h-3.37253603c-1.39668587 0-2.52842939-1.1431556-2.52842939-2.5517723v-3.40366c0-1.4095763 1.13174352-2.55177231 2.52842939-2.55177231zm9.57060518 0c1.3966859 0 2.5284294 1.14219601 2.5284294 2.55177231v3.40366c0 1.4086167-1.1317435 2.5517723-2.5284294 2.5517723h-3.372536c-1.3966859 0-2.52842941-1.1431556-2.52842941-2.5517723v-3.40366c0-1.4095763 1.13174351-2.55177231 2.52842941-2.55177231zm-9.57060518-9.49279539c1.39668588 0 2.52842939 1.14219597 2.52842939 2.55177233v3.40365995c0 1.40957637-1.13174351 2.55177233-2.52842939 2.55177233h-3.37253603c-1.39668587 0-2.52842939-1.14219596-2.52842939-2.55177233v-3.40365995c0-1.40957636 1.13174352-2.55177233 2.52842939-2.55177233z" fill="url(#c)"/></g></g></svg>