<svg viewBox="0 0 22 22" xmlns="http://www.w3.org/2000/svg" xmlns:xlink="http://www.w3.org/1999/xlink"><linearGradient id="a" x1="91.439987%" x2="7.388301%" y1="82.741764%" y2="32.02843%"><stop offset="0" stop-color="#e7e368"/><stop offset="1" stop-color="#41f5cf"/></linearGradient><g fill="none" fill-rule="evenodd"><path d="m0 0h22v22h-22z" fill="#000" fill-rule="nonzero" opacity="0"/><g transform="translate(2 1.999822)"><path d="m12.5632943 2.70003277c.6654798-.0039708 1.280807.35317714 1.6074167.93300943l3.574535 6.17113114c.339672.58365536.339672 1.30477826 0 1.88843356l-3.574535 6.1823718c-.3300927.5763818-.9432054.9322445-1.6074167.9329761h-7.12658861c-.66421124-.0007316-1.277324-.3565943-1.60741666-.9329761l-3.57453499-6.1823718c-.33967205-.5836553-.33967205-1.3047782 0-1.88843356l3.57453499-6.17113114c.32660971-.57983229.94193687-.93698022 1.60741666-.93300943zm-7.80478366 5.85138218c-.42893618-.75063831-1.60851064-.53617023-1.60851064.42893615v4.8255319c0 1.1795745 1.71574466 1.1795745 1.71574466-.107234v-2.0374468l2.14468087 2.4663829c.75063828.7506384 1.71574467.4289362 1.71574467-.4289361v-1.2868085h1.6085106c.9651064 0 1.0723405-1.5012766 0-1.5012766h-1.6085106v-1.07234044h3.4314894v3.86042554c0 1.1795745 1.7157446 1.1795745 1.7157446 0v-3.86042554h1.0723405c1.0723404 0 1.0723404-1.71574469 0-1.71574469h-7.07744684c-.5361702 0-.85787233.32170213-.96510638.85787233v2.1446809z" fill="url(#a)"/><rect fill="#41f5cf" height="1.8" opacity=".296038" rx=".9" width="13" x="2.6"/></g></g></svg>