<svg viewBox="0 0 22 22" xmlns="http://www.w3.org/2000/svg" xmlns:xlink="http://www.w3.org/1999/xlink"><linearGradient id="a" x1="91.439987%" x2="7.388301%" y1="78.658123%" y2="34.269893%"><stop offset="0" stop-color="#e7e368"/><stop offset="1" stop-color="#41f5cf"/></linearGradient><g fill="none" fill-rule="evenodd"><path d="m0 0h22v22h-22z" fill="#000" fill-rule="nonzero" opacity="0"/><g transform="translate(2 2)"><path d="m11.0352136.11889628-1.79122667.59580809c-.15839175.05268517-.32958211.05268517-.48797386 0l-1.79122669-.59580809c-1.09404187-.36390647-2.289278.13117654-2.80556169 1.1621017l-.8452886 1.68788848c-.07474584.14925392-.19579571.27030379-.34504963.34504963l-1.68788848.8452886c-1.03092516.51628369-1.52600817 1.71151982-1.1621017 2.80556169l.59580809 1.79122669c.05268517.15839175.05268517.32958211 0 .48797386l-.59580809 1.79122667c-.36390647 1.0940419.13117654 2.289278 1.1621017 2.8055617l1.68788848.8452886c.14925392.0747459.27030379.1957957.34504963.3450496l.8452886 1.6878885c.51628369 1.0309252 1.71151982 1.5260082 2.80556169 1.1621017l1.79122669-.5958081c.15839175-.0526851.32958211-.0526851.48797386 0l1.79122667.5958081c1.0940419.3639065 2.289278-.1311765 2.8055617-1.1621017l.8452886-1.6878885c.0747459-.1492539.1957957-.2703037.3450496-.3450496l1.6878885-.8452886c1.0309252-.5162837 1.5260082-1.7115198 1.1621017-2.8055617l-.5958081-1.79122667c-.0526851-.15839175-.0526851-.32958211 0-.48797386l.5958081-1.79122669c.3639065-1.09404187-.1311765-2.289278-1.1621017-2.80556169l-1.6878885-.8452886c-.1492539-.07474584-.2703037-.19579571-.3450496-.34504963l-.8452886-1.68788848c-.5162837-1.03092516-1.7115198-1.52600817-2.8055617-1.1621017z" fill="#41f5cf" opacity=".296038"/><path d="m11.8042066 6.07331678c1.460438 0 2.9833196-.4076306 4.5686447-1.22289179.6872835.34418913 1.0173388 1.14101321.7747345 1.87037446l-.5958081 1.79122669c-.1053703.3167835-.1053703.65916422 0 .97594772l.5958081 1.79122674c.2426043.7293612-.087451 1.5261853-.7747345 1.8703744l-1.6878884.8452886c-.2985079.1494917-.5406076.3915914-.6900993.6900993l-.8452886 1.6878884c-.3441891.6872835-1.1410132 1.0173388-1.8703744.7747345l-1.79122674-.5958081c-.3167835-.1053703-.65916422-.1053703-.97594772 0l-1.79122669.5958081c-.72936125.2426043-1.52618533-.087451-1.87037446-.7747345l-.8452886-1.6878884c-.14949168-.2985079-.39159141-.5406076-.69009925-.6900993l-1.68788848-.8452886c-.68728344-.3441891-1.01733878-1.1410132-.77473447-1.8703744l.59580809-1.79122674c.10537034-.3167835.10537034-.65916422 0-.97594772l-.59580809-1.79122669c-.24260431-.72936125.08745103-1.52618533.77473447-1.87037446l1.68788848-.8452886c.29850784-.14949168 1.61453562-.94447405 3.40576231-.31365882s2.89275019 2.38183921 5.08340715 2.38183921z" fill="url(#a)"/></g></g></svg>