<svg xmlns="http://www.w3.org/2000/svg" fill="none" viewBox="0 0 512 512">
  <mask id="a" width="512" height="512" x="0" y="0" mask-type="alpha" maskUnits="userSpaceOnUse">
    <path fill="#C4C4C4" d="M0 0h512v512H0z"/>
  </mask>
  <g mask="url(#a)">
    <path fill="#ECF3FF" d="M256 488.711c128.532 0 232.727-104.196 232.727-232.727 0-128.532-104.195-232.728-232.727-232.728S23.273 127.452 23.273 255.984c0 128.531 104.195 232.727 232.727 232.727Z"/>
    <path fill="#fff" d="m193.164 114.036-81.455-32.582v11.637l69.818 62.836-4.654 65.164-20.946 88.436L128 349.091l6.982 55.854 34.909 4.655 27.927-4.655 27.927 4.655 48.873-30.255 9.309-48.872 58.182-55.855 25.6 18.618 25.6 37.237v74.472l34.909-9.309 34.909-76.8 9.309-97.745L346.764 37.236l-20.946-4.654-132.654 81.454Z"/>
    <path fill="#94A6C4" d="M69.818 248.536c.931-7.912 1.397-15.825 3.724-23.272 6.516-30.72 19.083-60.044 37.702-83.782 3.258-4.189 6.051-7.913 9.774-11.637l-20.945-19.549c-3.724 5.586-7.448 11.171-10.706 16.757-17.222 29.789-26.53 63.301-28.858 96.349-.93 8.378-.465 16.756-.465 24.669 0 8.378.93 16.291 2.327 24.669 2.327 16.291 6.516 32.116 12.102 47.011-3.724-15.826-5.586-31.651-6.051-47.942 0-7.447 0-15.36 1.396-23.273Zm95.418-150.791c-11.636-5.585-27.927-13.032-39.563-18.618 10.705-10.24 30.254-20.945 46.545-27.927-11.636 9.309-11.636 28.858-6.982 46.545Zm-47.011 79.111c-6.516 16.291-10.705 33.513-12.101 50.269-.466 4.189-.931 8.379-.466 12.568 0 4.189 0 8.378.466 12.567l.465 6.516c0 1.862.466 4.189.931 6.051l1.862 12.567.465-12.567c0-1.862 0-4.189.466-6.051l.931-6.051c.465-4.189 1.396-8.378 1.861-12.101.466-4.19 1.862-7.913 2.793-11.637 4.189-15.825 11.171-30.254 19.549-43.753 5.586-8.843 12.102-16.756 19.084-24.203l-18.153-17.222c-7.913 10.705-13.498 21.411-18.153 33.047Zm269.499-79.592c-24.669-8.844-34.444-6.051-34.444-6.051s-15.36 41.425-74.007 44.218c.465.465 53.062 31.185 108.451-38.167Zm16.756 82.385c-2.327 51.2-41.891 70.284-72.611 66.56-16.756-2.327-41.425 5.586-41.425 5.586l-31.186 53.992-10.24 3.724 17.687-32.582s-41.891 15.36-45.149 16.757c-3.258 1.396-16.291 20.48-26.996 40.494-2.327-13.964-11.171-23.738-11.171-24.204 0 2.328 4.655 44.219-.465 55.855-5.12 12.102-27.928 20.015-27.928 20.015l33.513 12.567 2.327.931 25.135-23.738 9.309-35.375 11.636-8.378s28.858-3.258 24.669 22.807c-1.861 12.567-15.825 11.636-31.651 21.411-9.309 5.585-21.41 14.429-27.461 20.48l16.756 12.102s20.015-3.258 48.407-25.6c28.858-23.273 14.429-48.407 14.429-48.407l47.011-56.32 30.72 2.327s53.062 13.498 70.284 63.767c34.444-96.349-20.945-160.116-25.6-164.771Z"/>
    <path fill="#1C324F" d="M458.473 139.636c8.378 3.724 14.894 9.293 20.945 14.413-41.891-145.222-177.803-128.93-180.596-128 3.258-5.12 15.36-13.033 26.531-17.222 0 0-57.717-20.48-110.313 15.826.931-8.378 11.171-20.946 11.171-20.946-72.611 31.202-77.266 68.438-63.302 90.764C151.273 88.885 139.636 83.765 128 78.18 92.16 60.958 61.44 46.53 59.578 46.064c-3.258-.931-4.654.465-4.654.465s-1.397 1.396 1.396 4.19C98.676 93.074 125.673 118.69 170.822 160.1c-7.447 16.756-8.378 25.135-4.655 33.978 5.12 12.102 4.655 18.153 2.793 26.066-2.327 7.912-20.945 78.196-24.204 86.109-3.258 8.378-27.927 36.305-28.392 45.614-.466 9.309 6.981 50.269 17.221 56.32 7.913 4.189 26.997 13.033 40.96 14.895 4.655.931 9.31.465 11.637-1.396 9.309-6.051 11.636-6.982 17.687-6.517l1.396.466c2.328.465 5.12 1.396 8.844 1.861 7.913.931 18.153.931 26.531-4.654 12.102-9.309 32.582-20.946 39.564-26.997 8.378-8.378 13.963-20.014 13.963-33.047 0-11.636 7.913-20.945 16.757-30.254 8.378-8.379 29.323-28.859 37.701-37.702 21.411 7.447 29.324 38.167 29.324 54.924 0 46.545-37.702 114.501-124.276 119.621-3.258 0-6.517.466-10.24.466-112.64 0-204.8-99.608-204.8-216.437 0-92.16 55.374-154.567 55.84-155.033-44.684 42.357-71.2 101.506-71.2 167.601 0 128.465 104.262 232.743 232.727 232.743s232.727-104.278 232.727-232.743c0-41.891-10.705-82.369-30.254-116.348Zm-317.906-29.805-19.549-16.756c8.844 4.654 17.687 9.309 25.6 13.498 24.204 12.567 44.218 23.738 47.942 26.531l.931.931c2.327 2.792 4.654 7.447.465 13.498-2.327 3.258-5.12 2.327-9.309-.466-3.723-2.327-23.738-18.152-46.08-37.236Zm135.448 242.036c0 7.913-3.724 14.895-8.379 20.015-2.327 2.327-11.636 8.378-18.152 12.567-6.517 4.655-13.499 8.844-19.084 13.033-2.327 1.396-6.051 2.327-12.102 1.396l-14.429-1.862c8.844-8.843 33.047-27.927 40.96-31.65 9.309-4.655 14.895-9.775 10.706-20.481-3.724-11.17-18.153-10.705-18.153-10.705s8.843-2.327 15.825-1.396c-8.843-3.724-20.945-2.793-26.996 1.396-6.516 4.655-8.378 23.738-12.567 35.375-4.189 12.101-13.499 17.221-27.462 26.996-7.913 5.12-13.033 6.516-16.757 6.051-7.912-2.327-17.221-6.517-23.738-9.775-3.723-6.982-8.378-28.858-8.843-37.702 1.861-4.654 9.309-13.963 13.032-19.549 7.448-10.24 11.637-16.291 13.499-21.876 3.258-7.913 16.756-57.716 21.876-78.662 5.12 8.844 12.102 23.738 8.844 32.117 16.756-17.688 9.309-38.633 5.585-47.011-3.258-8.379-6.982-24.669.465-40.495 6.982-15.825 31.186-58.647 31.186-58.647s4.189 11.171 13.033 10.24c8.378-.931 88.901-91.23 88.901-91.23s12.568 41.892-10.705 67.492-42.822 28.392-42.822 28.392 26.066 8.379 53.062-5.585c6.982 25.134 13.033 51.2 13.033 54.458-1.862 3.258-27.928 47.011-30.255 49.804-.931.931-8.378 1.862-13.033 1.862-8.378 1.396-13.498 1.861-15.825 3.258-3.724 2.327-25.135 42.822-35.375 62.371-9.309 1.396-18.618 4.654-26.065 13.498 3.724-1.862 14.429-1.862 22.342-1.862 6.982.465 26.065 14.429 28.393 36.305v1.862Zm-54.459 19.549c5.12-5.585 6.051-16.291 6.982-19.549.931-3.258 2.793-9.309 6.982-9.774 4.189-.466 13.033 2.327 12.102 9.309-.931 6.516-7.913 6.982-13.498 10.24-3.724 2.327-11.637 8.843-12.568 9.774Zm202.473 6.051c-5.585-59.578-46.545-87.505-64.698-96.814 20.945-2.328 74.938-18.618 45.149-101.004.931 3.724 9.309 44.684-14.429 66.095-24.204 21.876-59.578 12.567-63.767 12.567-3.724-.466-21.411 16.756-45.615 49.804-2.327-1.397-12.102-5.12-24.204-4.655 12.102-22.807 30.255-55.389 33.048-58.182.931-.931 8.843-1.862 13.498-2.327 9.309-.931 13.964-1.862 15.825-3.724.931-1.396 7.448-11.636 13.964-22.807 4.189.465 15.36 1.396 16.756.931.931-.931 13.499-23.273 13.964-26.066.465-1.861-8.378-36.77-13.964-59.112 114.968 54.458 133.12 174.545 74.473 245.294Z"/>
    <path fill="#1C324F" d="M313.251 100.522c13.033-11.637 11.171-31.651 11.171-31.651l-39.098 43.287c-.466 0 11.636 2.327 27.927-11.636ZM167.098 346.747l6.517-18.618s-20.015 25.6-21.877 29.324c-1.862 4.189-.931 12.102 5.586 12.567 6.516.466 15.36-7.913 16.291-14.429 1.396-8.844-6.517-8.844-6.517-8.844Zm61.44-112.64c13.964-1.396 39.098-12.567 49.804-21.411 10.705-9.309 8.843-29.789-7.913-35.84 5.586-9.309 14.895-28.858 14.895-28.858s-60.044 70.284-64.699 71.215c-4.654.931-6.516-16.757-6.516-16.757-13.964 33.979 9.775 42.357 14.429 31.651Z"/>
    <path fill="#FFD925" d="m233.658 225.264 31.186-39.564s13.498 9.309 4.654 20.014c-11.171 12.568-35.84 19.55-35.84 19.55Z"/>
    <path fill="#D82423" d="M316.509 48.856 295.098 72.13c-17.222 5.12-33.978 14.43-49.804 29.789 0-8.844 25.6-47.476 71.215-53.062Zm26.996 20.014c.466-6.05 0-13.032-.931-19.548 27.928 3.723 60.975 20.014 98.677 56.785-31.186-17.222-64.233-33.047-97.746-37.236Zm8.379 30.255S455.68 144.74 474.764 272.74c2.792-166.633-115.433-175.01-122.88-173.615ZM200.611 25.584c-1.397 3.723-60.044 66.56 13.033 91.229-40.03-35.84-13.499-90.764-13.033-91.23Zm31.185 81.454s6.051-71.214 48.873-90.298c-3.258.93-90.298 27.462-48.873 90.298Z"/>
  </g>
</svg>
