<svg xmlns="http://www.w3.org/2000/svg" fill="none" viewBox="0 0 128 128">
  <g clip-path="url(#a)">
    <circle cx="64" cy="64" r="64" fill="#0B1712"/>
    <mask id="b" width="128" height="128" x="0" y="0" maskUnits="userSpaceOnUse" style="mask-type:alpha">
      <circle cx="64" cy="64" r="64" fill="#0B1712"/>
    </mask>
    <g mask="url(#b)">
      <g filter="url(#c)">
        <path fill="#0032B3" d="M39.632 55.556c10.302-56.748 24.53-33.042 31.184-32.31 6.653.734 29.094-39.764 18.791 16.984-10.302 56.748-30.082 86.212-36.735 85.479-6.654-.733-23.543-13.405-13.24-70.153Z"/>
      </g>
      <g filter="url(#d)">
        <path fill="#971A7B" d="M49 66.45C49 44.817 80.478 13 100.536 13s-2.438 24.677-2.438 46.313c0 21.635 14.417 54.843-5.641 54.843S49 88.086 49 66.451Z"/>
      </g>
      <g filter="url(#e)">
        <path fill="#1A9772" d="M145.753 60.749c12.912 24.07-69.516-.164-71.395 47.041-7.044-33.905-45.162-51.895-58.073-75.966C3.373 7.753 46.678 64.064 67.315 51.24c20.636-12.824 65.527-14.562 78.438 9.509Z"/>
      </g>
    </g>
    <g filter="url(#f)">
      <path fill="url(#g)" stroke="#AA5B19" stroke-opacity=".5" d="M38.317 85.734a2.537 2.537 0 0 1-2.16 1.205h-7.616c-1.986 0-3.202-2.176-2.162-3.867L61.8 25.508c.991-1.609 3.33-1.61 4.322-.002l35.493 57.564c1.043 1.69-.173 3.87-2.16 3.87H70.49a.317.317 0 0 0-.317.316v8.207A2.537 2.537 0 0 1 67.635 98h-7.353a2.537 2.537 0 0 1-2.538-2.537V63.297a2.537 2.537 0 0 1 2.538-2.537h7.353a2.537 2.537 0 0 1 2.537 2.537v11.726c0 .175.142.317.318.317h12.057c.248 0 .4-.272.27-.483l-18.589-30.25a.317.317 0 0 0-.54 0l-25.37 41.127Z"/>
      <mask id="i" width="77" height="74" x="25" y="24" maskUnits="userSpaceOnUse" style="mask-type:alpha">
        <path fill="url(#h)" d="M38.317 85.734a2.537 2.537 0 0 1-2.16 1.205h-7.616c-1.986 0-3.202-2.176-2.162-3.867L61.8 25.508c.991-1.609 3.33-1.61 4.322-.002l35.493 57.564c1.043 1.69-.173 3.87-2.16 3.87H70.49a.317.317 0 0 0-.317.316v8.207A2.537 2.537 0 0 1 67.635 98h-7.353a2.537 2.537 0 0 1-2.538-2.537V63.297a2.537 2.537 0 0 1 2.538-2.537h7.353a2.537 2.537 0 0 1 2.537 2.537v11.726c0 .175.142.317.318.317h12.057c.248 0 .4-.272.27-.483l-18.589-30.25a.317.317 0 0 0-.54 0l-25.37 41.127Z"/>
      </mask>
      <g mask="url(#i)">
        <g filter="url(#j)">
          <path fill="#FF3D00" d="M60.145 84.944c-9.617-9.047.305-13.15 2.592-15.919 2.286-2.77.23-15.643 9.847-6.596 9.617 9.047 10.011 19.882 7.725 22.652-2.286 2.77-10.548 8.91-20.164-.137Z"/>
        </g>
        <g filter="url(#k)">
          <path fill="#FFC300" d="M61.068 55.436c-9.076-5.77-13.053-28.473-7.083-37.534 5.97-9.06 9.626 7.682 18.702 13.451 9.076 5.77 27.297 8.112 21.327 17.173-5.97 9.061-23.87 12.68-32.946 6.91Z"/>
        </g>
        <g filter="url(#l)">
          <path fill="#CF9500" d="M41.815 33.043c12.504-3.561 5.124 26.848 26.12 31.799-15.186 3.255-18.855 11.517-31.36 15.079-12.503 3.561 9.254-10.671 6.16-20.847-3.096-10.176-13.424-22.47-.92-26.031Z"/>
        </g>
      </g>
    </g>
  </g>
  <defs>
    <filter id="c" width="127.891" height="187.796" x=".381" y="-26.074" color-interpolation-filters="sRGB" filterUnits="userSpaceOnUse">
      <feFlood flood-opacity="0" result="BackgroundImageFix"/>
      <feBlend in="SourceGraphic" in2="BackgroundImageFix" result="shape"/>
      <feGaussianBlur result="effect1_foregroundBlur_647_7759" stdDeviation="18"/>
    </filter>
    <filter id="d" width="131.86" height="173.156" x="13" y="-23" color-interpolation-filters="sRGB" filterUnits="userSpaceOnUse">
      <feFlood flood-opacity="0" result="BackgroundImageFix"/>
      <feBlend in="SourceGraphic" in2="BackgroundImageFix" result="shape"/>
      <feGaussianBlur result="effect1_foregroundBlur_647_7759" stdDeviation="18"/>
    </filter>
    <filter id="e" width="205.202" height="154.024" x="-22.076" y="-10.233" color-interpolation-filters="sRGB" filterUnits="userSpaceOnUse">
      <feFlood flood-opacity="0" result="BackgroundImageFix"/>
      <feBlend in="SourceGraphic" in2="BackgroundImageFix" result="shape"/>
      <feGaussianBlur result="effect1_foregroundBlur_647_7759" stdDeviation="18"/>
    </filter>
    <filter id="f" width="128.998" height="126.699" x="-.502" y=".338" color-interpolation-filters="sRGB" filterUnits="userSpaceOnUse">
      <feFlood flood-opacity="0" result="BackgroundImageFix"/>
      <feColorMatrix in="SourceAlpha" result="hardAlpha" values="0 0 0 0 0 0 0 0 0 0 0 0 0 0 0 0 0 0 127 0"/>
      <feOffset dy="2.537"/>
      <feGaussianBlur stdDeviation="13"/>
      <feComposite in2="hardAlpha" operator="out"/>
      <feColorMatrix values="0 0 0 0 0 0 0 0 0 0 0 0 0 0 0 0 0 0 0.5 0"/>
      <feBlend in2="BackgroundImageFix" result="effect1_dropShadow_647_7759"/>
      <feBlend in="SourceGraphic" in2="effect1_dropShadow_647_7759" result="shape"/>
    </filter>
    <filter id="j" width="79.789" height="84.792" x="28.851" y="32.081" color-interpolation-filters="sRGB" filterUnits="userSpaceOnUse">
      <feFlood flood-opacity="0" result="BackgroundImageFix"/>
      <feBlend in="SourceGraphic" in2="BackgroundImageFix" result="shape"/>
      <feGaussianBlur result="effect1_foregroundBlur_647_7759" stdDeviation="13.586"/>
    </filter>
    <filter id="k" width="92.667" height="91.582" x="26.837" y="-9.046" color-interpolation-filters="sRGB" filterUnits="userSpaceOnUse">
      <feFlood flood-opacity="0" result="BackgroundImageFix"/>
      <feBlend in="SourceGraphic" in2="BackgroundImageFix" result="shape"/>
      <feGaussianBlur result="effect1_foregroundBlur_647_7759" stdDeviation="12.156"/>
    </filter>
    <filter id="l" width="71.023" height="83.479" x="14.789" y="14.877" color-interpolation-filters="sRGB" filterUnits="userSpaceOnUse">
      <feFlood flood-opacity="0" result="BackgroundImageFix"/>
      <feBlend in="SourceGraphic" in2="BackgroundImageFix" result="shape"/>
      <feGaussianBlur result="effect1_foregroundBlur_647_7759" stdDeviation="8.938"/>
    </filter>
    <radialGradient id="g" cx="0" cy="0" r="1" gradientTransform="matrix(-65.61124 19.4748 -25.81337 -86.96608 104 48.824)" gradientUnits="userSpaceOnUse">
      <stop stop-color="#DEBB3E"/>
      <stop offset="1" stop-color="#FF6A3A"/>
    </radialGradient>
    <linearGradient id="h" x1="113.637" x2="113.637" y1="-4.329" y2="72.593" gradientUnits="userSpaceOnUse">
      <stop stop-color="#fff"/>
      <stop offset=".375" stop-color="#0D2A5F"/>
      <stop offset="1" stop-color="#0F1D28"/>
    </linearGradient>
    <clipPath id="a">
      <path fill="#fff" d="M0 0h128v128H0z"/>
    </clipPath>
  </defs>
</svg>
