<svg fill="none" viewBox="0 0 128 128" xmlns="http://www.w3.org/2000/svg" xmlns:xlink="http://www.w3.org/1999/xlink"><filter id="a" color-interpolation-filters="sRGB" filterUnits="userSpaceOnUse" height="187.796" width="127.891" x=".381" y="-26.074"><feFlood flood-opacity="0" result="BackgroundImageFix"/><feBlend in="SourceGraphic" in2="BackgroundImageFix" result="shape"/><feGaussianBlur result="effect1_foregroundBlur_647_7759" stdDeviation="18"/></filter><filter id="b" color-interpolation-filters="sRGB" filterUnits="userSpaceOnUse" height="173.156" width="131.86" x="13" y="-23"><feFlood flood-opacity="0" result="BackgroundImageFix"/><feBlend in="SourceGraphic" in2="BackgroundImageFix" result="shape"/><feGaussianBlur result="effect1_foregroundBlur_647_7759" stdDeviation="18"/></filter><filter id="c" color-interpolation-filters="sRGB" filterUnits="userSpaceOnUse" height="154.024" width="205.202" x="-22.076" y="-10.233"><feFlood flood-opacity="0" result="BackgroundImageFix"/><feBlend in="SourceGraphic" in2="BackgroundImageFix" result="shape"/><feGaussianBlur result="effect1_foregroundBlur_647_7759" stdDeviation="18"/></filter><filter id="d" color-interpolation-filters="sRGB" filterUnits="userSpaceOnUse" height="126.699" width="128.998" x="-.502" y=".338"><feFlood flood-opacity="0" result="BackgroundImageFix"/><feColorMatrix in="SourceAlpha" result="hardAlpha" values="0 0 0 0 0 0 0 0 0 0 0 0 0 0 0 0 0 0 127 0"/><feOffset dy="2.537"/><feGaussianBlur stdDeviation="13"/><feComposite in2="hardAlpha" operator="out"/><feColorMatrix values="0 0 0 0 0 0 0 0 0 0 0 0 0 0 0 0 0 0 0.5 0"/><feBlend in2="BackgroundImageFix" result="effect1_dropShadow_647_7759"/><feBlend in="SourceGraphic" in2="effect1_dropShadow_647_7759" result="shape"/></filter><filter id="e" color-interpolation-filters="sRGB" filterUnits="userSpaceOnUse" height="84.792" width="79.789" x="28.851" y="32.081"><feFlood flood-opacity="0" result="BackgroundImageFix"/><feBlend in="SourceGraphic" in2="BackgroundImageFix" result="shape"/><feGaussianBlur result="effect1_foregroundBlur_647_7759" stdDeviation="13.586"/></filter><filter id="f" color-interpolation-filters="sRGB" filterUnits="userSpaceOnUse" height="91.582" width="92.667" x="26.837" y="-9.046"><feFlood flood-opacity="0" result="BackgroundImageFix"/><feBlend in="SourceGraphic" in2="BackgroundImageFix" result="shape"/><feGaussianBlur result="effect1_foregroundBlur_647_7759" stdDeviation="12.156"/></filter><filter id="g" color-interpolation-filters="sRGB" filterUnits="userSpaceOnUse" height="83.479" width="71.023" x="14.789" y="14.877"><feFlood flood-opacity="0" result="BackgroundImageFix"/><feBlend in="SourceGraphic" in2="BackgroundImageFix" result="shape"/><feGaussianBlur result="effect1_foregroundBlur_647_7759" stdDeviation="8.938"/></filter><radialGradient id="h" cx="0" cy="0" gradientTransform="matrix(-65.61124 19.4748 -25.81337 -86.96608 104 48.824)" gradientUnits="userSpaceOnUse" r="1"><stop offset="0" stop-color="#debb3e"/><stop offset="1" stop-color="#ff6a3a"/></radialGradient><linearGradient id="i" gradientUnits="userSpaceOnUse" x1="113.637" x2="113.637" y1="-4.329" y2="72.593"><stop offset="0" stop-color="#fff"/><stop offset=".375" stop-color="#0d2a5f"/><stop offset="1" stop-color="#0f1d28"/></linearGradient><clipPath id="j"><path d="m0 0h128v128h-128z"/></clipPath><mask id="k" height="128" maskUnits="userSpaceOnUse" width="128" x="0" y="0"><circle cx="64" cy="64" fill="#0b1712" r="64"/></mask><mask id="l" height="74" maskUnits="userSpaceOnUse" width="77" x="25" y="24"><path d="m38.317 85.734a2.537 2.537 0 0 1 -2.16 1.205h-7.616c-1.986 0-3.202-2.176-2.162-3.867l35.421-57.564c.991-1.609 3.33-1.61 4.322-.002l35.493 57.564c1.043 1.69-.173 3.87-2.16 3.87h-28.965a.317.317 0 0 0 -.317.316v8.207a2.537 2.537 0 0 1 -2.538 2.537h-7.353a2.537 2.537 0 0 1 -2.538-2.537v-32.166a2.537 2.537 0 0 1 2.538-2.537h7.353a2.537 2.537 0 0 1 2.537 2.537v11.726c0 .175.142.317.318.317h12.057c.248 0 .4-.272.27-.483l-18.589-30.25a.317.317 0 0 0 -.54 0l-25.37 41.127z" fill="url(#i)"/></mask><g clip-path="url(#j)"><circle cx="64" cy="64" fill="#0b1712" r="64"/><g mask="url(#k)"><g filter="url(#a)"><path d="m39.632 55.556c10.302-56.748 24.53-33.042 31.184-32.31 6.653.734 29.094-39.764 18.791 16.984-10.302 56.748-30.082 86.212-36.735 85.479-6.654-.733-23.543-13.405-13.24-70.153z" fill="#0032b3"/></g><g filter="url(#b)"><path d="m49 66.45c0-21.633 31.478-53.45 51.536-53.45s-2.438 24.677-2.438 46.313c0 21.635 14.417 54.843-5.641 54.843s-43.457-26.07-43.457-47.705z" fill="#971a7b"/></g><g filter="url(#c)"><path d="m145.753 60.749c12.912 24.07-69.516-.164-71.395 47.041-7.044-33.905-45.162-51.895-58.073-75.966-12.912-24.071 30.393 32.24 51.03 19.416 20.636-12.824 65.527-14.562 78.438 9.509z" fill="#1a9772"/></g></g><g filter="url(#d)"><path d="m38.317 85.734a2.537 2.537 0 0 1 -2.16 1.205h-7.616c-1.986 0-3.202-2.176-2.162-3.867l35.421-57.564c.991-1.609 3.33-1.61 4.322-.002l35.493 57.564c1.043 1.69-.173 3.87-2.16 3.87h-28.965a.317.317 0 0 0 -.317.316v8.207a2.537 2.537 0 0 1 -2.538 2.537h-7.353a2.537 2.537 0 0 1 -2.538-2.537v-32.166a2.537 2.537 0 0 1 2.538-2.537h7.353a2.537 2.537 0 0 1 2.537 2.537v11.726c0 .175.142.317.318.317h12.057c.248 0 .4-.272.27-.483l-18.589-30.25a.317.317 0 0 0 -.54 0l-25.37 41.127z" fill="url(#h)" stroke="#aa5b19" stroke-opacity=".5"/><g mask="url(#l)"><g filter="url(#e)"><path d="m60.145 84.944c-9.617-9.047.305-13.15 2.592-15.919 2.286-2.77.23-15.643 9.847-6.596s10.011 19.882 7.725 22.652-10.548 8.91-20.164-.137z" fill="#ff3d00"/></g><g filter="url(#f)"><path d="m61.068 55.436c-9.076-5.77-13.053-28.473-7.083-37.534 5.97-9.06 9.626 7.682 18.702 13.451 9.076 5.77 27.297 8.112 21.327 17.173s-23.87 12.68-32.946 6.91z" fill="#ffc300"/></g><g filter="url(#g)"><path d="m41.815 33.043c12.504-3.561 5.124 26.848 26.12 31.799-15.186 3.255-18.855 11.517-31.36 15.079-12.503 3.561 9.254-10.671 6.16-20.847-3.096-10.176-13.424-22.47-.92-26.031z" fill="#cf9500"/></g></g></g></g></svg>