<svg viewBox="0 0 648.125 647.208" xmlns="http://www.w3.org/2000/svg"><g fill="#004b80"><path d="m331.553 646.775c-27.28-.03-48.192-1.797-68.808-6.003-32.065-6.54-63.012-16.548-91.517-32.877-23.084-13.223-38.85-33.06-48.263-57.818-5.937-15.615-8.425-32.064-10.24-48.591-2.328-21.198-2.576-42.48.152-63.597 2.235-17.301 5.014-34.638 9.146-51.57 12.813-52.502 37.018-99.742 68.491-143.4 25.722-35.68 54.885-68.054 90.943-93.728 24.98-17.786 51.896-31.69 81.061-41.318 38.73-12.783 78.444-17.032 118.987-14.208 22.095 1.54 43.839 5.368 65.167 11.385 5.516 1.556 11.46 2.636 16.225 5.546 5.525 3.374 10.38 8.145 14.8 12.975 13.357 14.599 22.658 31.887 31.813 49.26 11.27 21.39 20.324 43.652 26.642 66.984 8.716 32.188 12.162 64.968 10.844 98.297-.753 19.031-3.125 37.848-7.273 56.393-9.175 41.029-25.581 78.962-49.645 113.511-29.97 43.03-68.09 76.885-114.39 101.496-19.887 10.571-40.697 18.822-62.37 25.038-28.78 8.255-58.12 12.104-81.765 12.225z"/><path d="m517.993 65.533c-4.735-1.784-9.458-3.604-14.208-5.348-17.03-6.252-34.535-10.573-52.43-13.589-25.257-4.257-50.647-5.716-76.173-4.243-26.606 1.536-52.819 5.645-78.597 12.622-81.551 22.073-148.75 66.347-202.8 130.918-30.947 36.971-54.93 78.19-73.066 122.78-6.244 15.35-11.439 31.127-17.129 46.703-.2.549-.594 1.027-1.55 1.48-1.833-26.078-2.24-52.149 1.566-78.04 12.277-83.503 50.265-153.002 115.865-206.32 131.656-107.008 301.823-83.24 398.522-6.963z"/></g></svg>