<svg xmlns="http://www.w3.org/2000/svg" version="1.2" viewBox="0 0 48 48">
  <g>
    <g>
      <g fill="#495bff">
        <path d="m29.2 40.438-15.9-9.2c-.6-.3-.9-.9-.9-1.6v-18.5c0-.3-.3-.5-.5-.3l-3.3 1.9c-1.2.7-2 2-2 3.5v15.5c0 1.4.8 2.7 2 3.5l13.4 7.8c1.2.7 2.8.7 4 0l3.3-1.9c.2-.3.2-.6-.1-.7z" class="s0"/>
        <path fill-rule="evenodd" d="M15.3 27.837v-18c0-.7.3-1.3.9-1.6l4.4-2.5c.2-.2.5 0 .5.3v9.1c0 .2.2.3.3.2l1.7-1c.5-.3 1.2-.3 1.8 0l6.9 4c.6.4.9 1 .9 1.6v8c0 .7-.3 1.3-.9 1.6l-6.9 4c-.5.3-1.2.3-1.8 0l-6.9-4c-.6-.4-.9-1-.9-1.7zm4.9-2.3c0 .3.2.7.5.9l2.7 1.5c.3.2.8.2 1.1 0l2.7-1.6c.3-.2.5-.5.5-.9v-3.1c0-.3-.2-.7-.5-.9l-2.7-1.6c-.3-.2-.8-.2-1.1 0l-2.7 1.6c-.3.2-.5.5-.5.9v3.2z" class="s0"/>
        <path d="M39.4 12.738 26 4.938c-.6-.3-1.2-.5-1.8-.5-.1 0-.2.1-.2.2v5.7c0 .1.1.2.2.3l10.5 6.1c.6.3.9.9.9 1.6v11.3c0 .6-.3 1.2-.9 1.6l-7.2 4.2c-.2.1-.2.5 0 .6l4.9 2.8c.2.1.5.1.7 0l6.3-3.7c1.2-.7 2-2 2-3.5v-15.5c-.1-1.4-.8-2.7-2-3.4z" class="s0"/>
      </g>
    </g>
  </g>
</svg>
