<svg fill="none" viewBox="0 0 32 32" xmlns="http://www.w3.org/2000/svg" xmlns:xlink="http://www.w3.org/1999/xlink"><linearGradient id="a" gradientUnits="userSpaceOnUse" x1="16" x2="16" y1="0" y2="31.594"><stop offset="0" stop-color="#fff" stop-opacity=".5"/><stop offset=".633" stop-color="#e00037"/></linearGradient><linearGradient id="b" gradientUnits="userSpaceOnUse" x1="15.997" x2="15.997" y1="6.42" y2="26.139"><stop offset="0" stop-color="#fff"/><stop offset=".544" stop-color="#f9f7fa"/><stop offset=".77" stop-color="#f7f7f7"/><stop offset="1" stop-color="#e6e6e6"/></linearGradient><clipPath id="c"><rect height="32" rx="8" width="32"/></clipPath><clipPath id="d"><path d="m0 0h32v32h-32z"/></clipPath><filter id="e" color-interpolation-filters="sRGB" filterUnits="userSpaceOnUse" height="232" width="232" x="-100" y="-100"><feFlood flood-opacity="0"/><feBlend in="SourceGraphic"/><feGaussianBlur stdDeviation="50"/></filter><filter id="f" color-interpolation-filters="sRGB" filterUnits="userSpaceOnUse" height="139.72" width="138.705" x="-53.355" y="-9.58"><feFlood flood-opacity="0" result="A"/><feColorMatrix in="SourceAlpha" values="0 0 0 0 0 0 0 0 0 0 0 0 0 0 0 0 0 0 127 0"/><feOffset dy="44"/><feGaussianBlur stdDeviation="30"/><feColorMatrix values="0 0 0 0 0 0 0 0 0 0 0 0 0 0 0 0 0 0 0.28 0"/><feBlend in2="A"/><feBlend in="SourceGraphic"/></filter><radialGradient id="g" cx="0" cy="0" gradientTransform="matrix(0 14.2418 -13.5087 0 15.997 11.898)" gradientUnits="userSpaceOnUse" r="1"><stop offset=".479" stop-color="#fff"/><stop offset="1"/></radialGradient><mask id="h" height="24" maskUnits="userSpaceOnUse" width="24" x="4" y="4"><path d="m10.377 8.118-3.541 3.541c-.266.266-.249.482.017.748l10.872 10.872c.266.266.482.283.748.017l4.971-4.971c2.593-2.593 2.377-5.336.332-7.381-1.463-1.463-2.992-1.995-4.738-1.513-.283.083-.416.05-.549-.083-.049-.049-.088-.106-.139-.179l-.061-.087c-.2-.299-.532-.765-.798-1.031-2.095-2.095-4.771-2.277-7.115.066zm4.572 4.571-.848.848c-.266.266-.482.249-.748-.017l-.798-.798c-.266-.266-.283-.482-.017-.748l.848-.848c.432-.432 1.047-.482 1.546.017.515.515.449 1.114.017 1.546zm5.436 2.677-2.227 2.228c-.266.266-.482.249-.748-.017l-.798-.798c-.266-.266-.283-.482-.017-.748l2.228-2.228c.648-.648 1.263-.765 1.795-.233.549.549.416 1.147-.233 1.795zm-12.593 1.986a.98.98 0 0 0 0 1.385l6.927 6.927a.98.98 0 0 0 1.385 0 .98.98 0 0 0 0-1.385l-6.927-6.927a.98.98 0 0 0 -1.385 0z" fill="#fff" fill-rule="evenodd"/></mask><g clip-path="url(#c)"><g clip-path="url(#d)"><path d="m0 0h32v32h-32z" fill="#ff245a"/><g filter="url(#e)"><path d="m8 8h16v16h-16z" stroke="url(#a)" stroke-width="16"/></g><g mask="url(#h)"><g filter="url(#f)"><rect fill="url(#b)" height="19.719" rx="9.352" width="18.704" x="6.645" y="6.42"/><rect fill="url(#g)" fill-opacity=".12" height="19.719" rx="9.352" width="18.704" x="6.645" y="6.42"/><rect fill="#fff" fill-opacity=".2" height="19.719" rx="9.352" width="18.704" x="6.645" y="6.42"/></g></g></g></g></svg>