<svg viewBox="0 0 256 256" xmlns="http://www.w3.org/2000/svg" xmlns:xlink="http://www.w3.org/1999/xlink"><linearGradient id="a" x1="0%" x2="100%" y1="50.706%" y2="50.706%"><stop offset="0" stop-color="#f50"/><stop offset=".40988" stop-color="#f50"/><stop offset=".58198" stop-color="#ff2000"/><stop offset="1" stop-color="#ff2000"/></linearGradient><linearGradient id="b" x1="2.148%" x2="100%" y1="50.706%" y2="50.706%"><stop offset="0" stop-color="#ff452a"/><stop offset="1" stop-color="#ff2000"/></linearGradient><path d="m229.184 61.548 5.984-14.707s-7.616-8.17-16.864-17.43c-9.248-9.259-28.832-3.812-28.832-3.812l-22.304-25.336h-78.336l-22.304 25.337s-19.584-5.447-28.832 3.813-16.864 17.43-16.864 17.43l5.984 14.706-7.616 21.786s22.4 84.947 25.024 95.32c5.168 20.425 8.704 28.323 23.392 38.672 14.688 10.35 41.344 28.323 45.696 31.046 4.352 2.724 9.792 7.363 14.688 7.363s10.336-4.64 14.688-7.363 31.008-20.697 45.696-31.046c14.688-10.35 18.224-18.247 23.392-38.673 2.624-10.373 25.024-95.319 25.024-95.319z" fill="url(#a)"/><path d="m183.216 41.667s28.688 34.723 28.688 42.145-3.608 9.38-7.237 13.239l-21.51 22.87c-2.036 2.163-6.273 5.444-3.78 11.35 2.492 5.905 6.168 13.419 2.08 21.04-4.089 7.62-11.093 12.707-15.58 11.866-4.489-.842-15.029-6.357-18.905-8.876-3.876-2.52-16.16-12.663-16.16-16.545 0-3.88 12.698-10.85 15.044-12.432 2.347-1.583 13.047-7.712 13.266-10.117.219-2.406.136-3.11-3.022-9.055-3.158-5.944-8.845-13.875-7.898-19.153.946-5.277 10.118-8.02 16.663-10.496 6.545-2.474 19.146-7.148 20.72-7.875 1.575-.727 1.168-1.42-3.601-1.872-4.768-.452-18.3-2.25-24.402-.548-6.1 1.702-16.524 4.293-17.368 5.667-.844 1.373-1.589 1.42-.722 6.158.867 4.74 5.33 27.477 5.764 31.516.433 4.04 1.28 6.71-3.068 7.705-4.35.995-11.672 2.724-14.188 2.724s-9.838-1.729-14.187-2.724c-4.35-.996-3.503-3.666-3.07-7.705.434-4.039 4.898-26.777 5.765-31.516s.122-4.785-.722-6.158c-.844-1.374-11.268-3.965-17.369-5.667-6.1-1.703-19.633.096-24.401.548-4.769.453-5.176 1.145-3.602 1.872 1.575.727 14.177 5.4 20.72 7.875 6.546 2.475 15.718 5.22 16.665 10.496.946 5.278-4.741 13.21-7.899 19.153-3.158 5.944-3.241 6.65-3.022 9.055s10.92 8.534 13.266 10.117 15.044 8.552 15.044 12.432c0 3.882-12.284 14.026-16.16 16.545-3.876 2.52-14.416 8.034-18.904 8.876-4.488.84-11.492-4.246-15.58-11.867-4.089-7.62-.412-15.135 2.08-21.04 2.491-5.905-1.745-9.186-3.78-11.35l-21.511-22.87c-3.629-3.857-7.237-5.816-7.237-13.237 0-7.423 28.688-42.146 28.688-42.146s24.208 4.63 27.472 4.63 10.336-2.723 16.864-4.901c6.528-2.181 10.88-2.196 10.88-2.196s4.352.016 10.88 2.195c6.528 2.178 13.6 4.902 16.864 4.902s27.472-4.63 27.472-4.63zm-21.506 132.825c1.775 1.113.692 3.212-.925 4.357-1.618 1.145-23.357 18-25.467 19.862-2.11 1.863-5.21 4.94-7.318 4.94s-5.209-3.077-7.318-4.94c-2.11-1.864-23.849-18.718-25.467-19.863s-2.7-3.244-.925-4.357c1.777-1.113 7.333-3.922 15-7.894 7.665-3.972 17.219-7.349 18.71-7.349s11.045 3.378 18.711 7.35c7.666 3.971 13.222 6.78 14.999 7.893z" fill="#fff"/><path d="m170.272 25.336-22.304-25.336h-78.336l-22.304 25.336s-19.584-5.447-28.832 3.813c0 0 26.112-2.36 35.088 12.255 0 0 24.208 4.63 27.472 4.63s10.336-2.724 16.864-4.902c6.528-2.179 10.88-2.195 10.88-2.195s4.352.016 10.88 2.195c6.528 2.178 13.6 4.902 16.864 4.902s27.472-4.63 27.472-4.63c8.976-14.615 35.088-12.255 35.088-12.255-9.248-9.26-28.832-3.813-28.832-3.813" fill="url(#b)" transform="translate(19.2 .264)"/></svg>