<svg xmlns="http://www.w3.org/2000/svg" xml:space="preserve" style="enable-background:new 0 0 43 43" viewBox="0 0 43 43">
  <path fill="#7E44F2" d="M11.1 2.3c-.9.2-2.2.6-3 1-1.9 1-3.6 2.9-4.4 4.9-.6 1.5-.6.8-.6 12.9 0 11.8 0 11.9.4 13.3.8 2.3 2.6 4.4 4.7 5.4 1.2.6 2.3.9 3.5 1 1.3.1 24.3.1 25.1 0 1.2-.2 2.1-.8 2.6-1.9l.3-.6v-2.1c0-1.8 0-2.2-.2-2.6-.6-1.9-1.9-3.1-3.7-3.6-.4-.1-1.5-.1-7.9-.2h-7.5l-.8-.2c-3.1-1-5.4-3.4-6-6.4-.2-1-.1-2.8.1-3.7.2-.8.8-1.9 1.2-2.5.9-1.2 2.5-2.5 3.8-3 1.4-.5 1.4-.5 8.8-.5 3.7 0 7 0 7.4-.1 2.1-.3 3.7-1.6 4.4-3.6.2-.5.2-.8.2-2.4 0-1.2 0-2-.1-2.3-.3-1.4-1.3-2.4-2.7-2.7-.3-.1-4-.1-12.9-.1-9.7-.2-12.1-.1-12.7 0z"/>
  <path fill="#7E44F2" d="M20.8 16c-1.7.4-3.2 1.8-3.7 3.5-.4 1.1-.4 2.8 0 3.9.5 1.5 1.8 2.8 3.4 3.3l.6.2h7c7 0 7 0 7.7-.2 1.8-.6 3.3-2.1 3.7-3.9.2-1 .2-2.5-.1-3.4-.6-1.7-2.1-3-3.8-3.5-.9-.1-14.1-.1-14.8.1z"/>
</svg>
