<svg fill="none" viewBox="0 0 122 124" xmlns="http://www.w3.org/2000/svg" xmlns:xlink="http://www.w3.org/1999/xlink"><radialGradient id="a" cx="0" cy="0" gradientTransform="matrix(29.40962 91.90712 -86.15104 27.56772 8.432 27.46)" gradientUnits="userSpaceOnUse" r="1"><stop offset=".12" stop-color="#8952ff" stop-opacity=".87"/><stop offset="1" stop-color="#dabdff" stop-opacity="0"/></radialGradient><linearGradient id="b" gradientUnits="userSpaceOnUse" x1="105.084" x2="69.844" y1="132.594" y2="-12.277"><stop offset="0" stop-color="#0b46f9"/><stop offset="1" stop-color="#bbfbe0"/></linearGradient><mask id="c" height="124" maskUnits="userSpaceOnUse" width="122" x="0" y="0"><path d="m121.787 34.833-52.4-34.356v19.209l33.615 21.843-3.955 12.513h-29.66v15.916h29.66l3.955 12.513-33.614 21.843v19.209l52.399-34.246-8.569-27.222zm-97.987 35.125h29.55v-15.916h-29.66l-3.845-12.513 33.504-21.844v-19.207l-52.399 34.355 8.57 27.222-8.57 27.222 52.51 34.246v-19.209l-33.616-21.843 3.954-12.513z" fill="#1d1d1b"/></mask><g mask="url(#c)"><path d="m121.787 34.833-52.4-34.356v19.209l33.615 21.843-3.955 12.513h-29.66v15.916h29.66l3.955 12.513-33.614 21.843v19.209l52.399-34.246-8.569-27.222zm-97.987 35.125h29.55v-15.916h-29.66l-3.845-12.513 33.504-21.844v-19.207l-52.399 34.355 8.57 27.222-8.57 27.222 52.51 34.246v-19.209l-33.616-21.843 3.954-12.513z" fill="#fff"/><path d="m1.106.477h133.744v136.085h-133.744z" fill="url(#b)"/><ellipse cx="8.432" cy="27.46" fill="url(#a)" rx="117.639" ry="127.545" transform="matrix(.82972014 -.55817963 .55817963 .82972014 -13.891813 9.382456)"/></g></svg>