<svg fill="none" viewBox="0 0 540 540" xmlns="http://www.w3.org/2000/svg"><rect fill="#cc703c" height="540" rx="150" width="540"/><path clip-rule="evenodd" d="m415 89-2.195 5.293-7.225 16.935-4.796 10.92c-36.417 81.85-64.748 120.696-94.861 120.696-17.355 0-27.625-4.544-40.923-15.21l-3.838-3.166c-9.567-8.017-13.596-9.988-22.799-9.988-4.797 0-13.38 5.58-24.241 18.604-11.263 13.505-23.614 33.457-36.888 59.737l-1.236 2.459 129.193.006-16.086 30.298h-120.643v124.416h-35.462v-361zm-50.269 30.309-196.271-.011v120.311c23.516-37.029 45.862-55.62 69.903-55.62 18.691 0 29.704 4.777 43.599 15.896l3.964 3.267c8.932 7.484 12.374 9.201 19.997 9.201 8.429 0 30.751-32.161 58.808-93.044z" fill="#fff" fill-rule="evenodd"/></svg>