<svg fill="none" viewBox="0 0 24 24" xmlns="http://www.w3.org/2000/svg"><circle cx="12" cy="12" fill="#000" r="12"/><g clip-rule="evenodd" fill="#fff" fill-rule="evenodd"><path d="m7.529 9.75v6.215a.88.88 0 0 0 .896.892h7.337a.88.88 0 0 0 .897-.892v-5.213h.966v5.213a1.84 1.84 0 0 1 -1.863 1.848h-7.337a1.84 1.84 0 0 1 -1.863-1.848v-6.215z"/><path d="m6.563 8.223a1.84 1.84 0 0 1 1.862-1.848h7.484v2.272h.223c.84 0 1.493.65 1.493 1.48v.768c0 .83-.652 1.48-1.493 1.48h-7.707a1.84 1.84 0 0 1 -1.863-1.848v-2.304zm8.38.424v-1.317h-6.518a.88.88 0 0 0 -.896.892v2.304a.88.88 0 0 0 .896.892h3.186v-2.771zm-2.366 2.772h3.555a.508.508 0 0 0 .527-.524v-.768a.508.508 0 0 0 -.527-.525h-3.555z"/></g></svg>