<svg xmlns="http://www.w3.org/2000/svg" fill="none" viewBox="0 0 24 24">
  <circle cx="12" cy="12" r="12" fill="#000"/>
  <path fill="#fff" fill-rule="evenodd" d="M7.529 9.75v6.215a.88.88 0 0 0 .896.892h7.337a.88.88 0 0 0 .897-.892v-5.213h.966v5.213a1.84 1.84 0 0 1-1.863 1.848H8.425a1.84 1.84 0 0 1-1.863-1.848V9.75h.967Z" clip-rule="evenodd"/>
  <path fill="#fff" fill-rule="evenodd" d="M6.563 8.223a1.84 1.84 0 0 1 1.862-1.848h7.484v2.272h.223c.84 0 1.493.65 1.493 1.48v.768c0 .83-.652 1.48-1.493 1.48H8.425a1.84 1.84 0 0 1-1.863-1.848V8.223Zm8.38.424V7.33H8.425a.88.88 0 0 0-.896.892v2.304a.88.88 0 0 0 .896.892h3.186V8.647h3.332Zm-2.366 2.772h3.555a.508.508 0 0 0 .527-.524v-.768a.508.508 0 0 0-.527-.525h-3.555v1.817Z" clip-rule="evenodd"/>
</svg>
