<svg viewBox="0 0 200 200" xmlns="http://www.w3.org/2000/svg"><path d="m0 0h200v200h-200z"/><path d="m133.65 94.013c-3-2.9-3-7.5 0-10.4 2.9-2.9 7.5-2.9 10.4 0s2.9 7.5 0 10.4-7.5 2.9-10.4 0zm-24.7 24.7c-2.1-2.1-2.1-5.6 0-7.8 2.1-2.1 5.6-2.1 7.8 0 2.1 2.1 2.1 5.6 0 7.8-2.2 2.1-5.7 2.1-7.8 0zm39-13c-2.1-2.1-2.1-5.6-.1-7.8 2.1-2.1 5.6-2.1 7.8 0 2.1 2.1 2.1 5.6 0 7.8-2.2 2.2-5.7 2.2-7.8 0zm-13 13c-2-2.1-2-5.6 0-7.8 2.1-2.1 5.6-2.1 7.8 0 2.1 2.1 2.1 5.6 0 7.8-2.2 2.1-5.5 2.1-7.8 0zm27.4-1.3c-1.4-1.4-1.4-3.8 0-5.2s3.8-1.4 5.2 0 1.4 3.8 0 5.2c-1.5 1.4-3.9 1.4-5.2 0zm-13 13c-1.4-1.4-1.4-3.8 0-5.2s3.8-1.4 5.2 0 1.4 3.8 0 5.2c-1.5 1.4-3.8 1.4-5.2 0zm-28.6-23.4c-2.9-2.9-2.9-7.5 0-10.4s7.5-2.9 10.4 0 2.9 7.5 0 10.4c-2.8 2.9-7.5 2.9-10.4 0zm0-25.9c-2.9-2.9-2.9-7.5 0-10.4s7.5-2.9 10.4 0 2.9 7.5 0 10.4c-2.8 2.8-7.5 2.8-10.4 0zm-12.9 12.9c-2.9-2.9-2.9-7.5 0-10.4s7.5-2.9 10.4 0 2.9 7.5 0 10.4-7.6 2.9-10.4 0zm-26.1 0c-2.9-2.9-2.9-7.5 0-10.4s7.5-2.9 10.4 0 2.9 7.5 0 10.4-7.5 2.9-10.4 0zm-24.7 24.7c-2.1-2.1-2.1-5.6 0-7.8 2.1-2.1 5.6-2.1 7.8 0 2.1 2.1 2.1 5.6 0 7.8-2.1 2.1-5.6 2.1-7.8 0zm39-13c-2.1-2.1-2.1-5.6 0-7.8 2.1-2.1 5.6-2.1 7.8 0 2.1 2.1 2.1 5.6 0 7.8-2.2 2.2-5.7 2.2-7.8 0zm-13 13c-2.1-2.1-2.1-5.6 0-7.8 2.1-2.1 5.6-2.1 7.8 0 2.1 2.1 2.1 5.6 0 7.8-2.2 2.1-5.7 2.1-7.8 0zm-50.6-1.3c-1.4-1.4-1.4-3.8 0-5.2s3.8-1.4 5.2 0 1.4 3.8 0 5.2c-1.5 1.4-3.8 1.4-5.2 0zm13 13c-1.4-1.4-1.4-3.8 0-5.2s3.8-1.4 5.2 0 1.4 3.8 0 5.2c-1.5 1.4-3.8 1.4-5.2 0zm51.9 0c-1.4-1.4-1.4-3.8 0-5.2s3.8-1.4 5.2 0 1.4 3.8 0 5.2c-1.5 1.4-3.8 1.4-5.2 0zm-53.2-24.7c-2.1-2.1-2.1-5.6 0-7.8 2.1-2.1 5.6-2.1 7.8 0 2.1 2.1 2.1 5.6 0 7.8-2.2 2.2-5.7 2.2-7.8 0zm24.6 1.3c-2.9-2.9-2.9-7.5 0-10.4s7.5-2.9 10.4 0 2.9 7.5 0 10.4-7.5 2.9-10.4 0zm0-25.9c-2.9-2.9-2.9-7.5 0-10.4s7.5-2.9 10.4 0 2.9 7.5 0 10.4c-2.9 2.8-7.5 2.8-10.4 0zm-13 12.9c-2.9-2.9-2.9-7.5 0-10.4s7.5-2.9 10.4 0 2.9 7.5 0 10.4c-2.8 2.9-7.5 2.9-10.4 0z" fill="#fff"/></svg>