<svg xmlns="http://www.w3.org/2000/svg" fill="none" viewBox="0 0 1080 1080">
  <path fill="#fff" d="M0 0h1080v1080H0z"/>
  <path fill="#000" d="M385.67 428H171.631a4.974 4.974 0 0 0-4.977 4.978v214.039c0 1.32.524 2.586 1.458 3.519a4.973 4.973 0 0 0 3.519 1.458H385.67a4.974 4.974 0 0 0 4.978-4.977V432.978A4.974 4.974 0 0 0 385.67 428Zm-69.687 144.352a4.977 4.977 0 0 1-4.977 4.978h-64.71a4.982 4.982 0 0 1-3.52-1.458 4.98 4.98 0 0 1-1.457-3.52v-64.71a4.977 4.977 0 0 1 4.977-4.977h64.71c1.32 0 2.586.524 3.519 1.458a4.973 4.973 0 0 1 1.458 3.519v64.71Zm517.8-69.679h-64.709a4.977 4.977 0 0 0-4.978 4.977v64.71a4.978 4.978 0 0 0 4.978 4.978h64.709a4.978 4.978 0 0 0 4.978-4.978v-64.71a4.977 4.977 0 0 0-4.978-4.977Zm-74.695-74.667h-64.709a4.978 4.978 0 0 0-4.978 4.978v64.709a4.978 4.978 0 0 0 4.978 4.978h64.709a4.978 4.978 0 0 0 4.978-4.978v-64.709a4.977 4.977 0 0 0-4.978-4.978Zm149.33 0h-64.71a4.978 4.978 0 0 0-4.978 4.978v64.709a4.978 4.978 0 0 0 4.978 4.978h64.71a4.977 4.977 0 0 0 4.977-4.978v-64.709a4.977 4.977 0 0 0-4.977-4.978Zm-149.33 149.328h-64.709a4.977 4.977 0 0 0-4.978 4.977v64.71a4.978 4.978 0 0 0 4.978 4.978h64.709a4.978 4.978 0 0 0 4.978-4.978v-64.71a4.977 4.977 0 0 0-4.978-4.977Zm149.33 0h-64.71a4.977 4.977 0 0 0-4.978 4.977v64.71a4.978 4.978 0 0 0 4.978 4.978h64.71a4.977 4.977 0 0 0 4.977-4.978v-64.71a4.977 4.977 0 0 0-4.977-4.977ZM646.997 428.006h-64.709a4.978 4.978 0 0 0-4.978 4.978v64.709a4.978 4.978 0 0 0 4.978 4.978h64.709a4.978 4.978 0 0 0 4.978-4.978v-64.709a4.978 4.978 0 0 0-4.978-4.978Zm0 149.328h-64.709a4.977 4.977 0 0 0-4.978 4.977v64.71a4.978 4.978 0 0 0 4.978 4.978h64.709a4.978 4.978 0 0 0 4.978-4.978v-64.71a4.977 4.977 0 0 0-4.978-4.977Zm-69.687-69.748a4.978 4.978 0 0 0-4.978-4.977h-69.687v-69.631a4.978 4.978 0 0 0-4.978-4.978h-64.709a4.974 4.974 0 0 0-4.978 4.978v213.927a4.974 4.974 0 0 0 4.978 4.977h64.709a4.977 4.977 0 0 0 4.978-4.977v-69.631h69.687a4.982 4.982 0 0 0 4.978-4.978v-64.71Z"/>
</svg>
