<svg fill="none" viewBox="0 0 128 128" xmlns="http://www.w3.org/2000/svg" xmlns:xlink="http://www.w3.org/1999/xlink"><linearGradient id="a" gradientUnits="userSpaceOnUse" x1="64" x2="64" y1="0" y2="128"><stop offset="0" stop-color="#534bb1"/><stop offset="1" stop-color="#551bf9"/></linearGradient><linearGradient id="b" gradientUnits="userSpaceOnUse" x1="65.5" x2="65.5" y1="23" y2="108"><stop offset="0" stop-color="#fff"/><stop offset="1" stop-color="#fff" stop-opacity=".82"/></linearGradient><clipPath id="c"><path d="m0 0h128v128h-128z"/></clipPath><filter id="d" color-interpolation-filters="sRGB" filterUnits="userSpaceOnUse" height="100.281" width="117.472" x="6.764" y="15.36"><feFlood flood-opacity="0" result="BackgroundImageFix"/><feColorMatrix in="SourceAlpha" result="hardAlpha" values="0 0 0 0 0 0 0 0 0 0 0 0 0 0 0 0 0 0 127 0"/><feOffset/><feGaussianBlur stdDeviation="3.82"/><feColorMatrix values="0 0 0 0 0 0 0 0 0 0 0 0 0 0 0 0 0 0 0.3 0"/><feBlend in2="BackgroundImageFix" result="effect1_dropShadow_8241_140154"/><feBlend in="SourceGraphic" in2="effect1_dropShadow_8241_140154" result="shape"/></filter><g clip-path="url(#c)"><circle cx="64" cy="64" fill="url(#a)" r="64"/><g filter="url(#d)"><path d="m110.584 64.914h-11.442c0-23.149-18.969-41.914-42.37-41.914-23.11 0-41.9 18.306-42.36 41.058-.476 23.519 21.83 43.942 45.607 43.942h2.99c20.963 0 49.06-16.233 53.45-36.013.811-3.646-2.1-7.073-5.875-7.073zm-70.815 1.031c0 3.096-2.56 5.628-5.689 5.628s-5.688-2.533-5.688-5.628v-9.104c0-3.095 2.56-5.627 5.688-5.627 3.13 0 5.69 2.532 5.69 5.627v9.104zm19.754 0c0 3.096-2.56 5.628-5.689 5.628-3.13 0-5.689-2.533-5.689-5.628v-9.104c0-3.095 2.56-5.627 5.689-5.627 3.13 0 5.689 2.532 5.689 5.627z" fill="url(#b)"/></g></g></svg>