<svg fill="none" viewBox="0 0 320 320" xmlns="http://www.w3.org/2000/svg" xmlns:xlink="http://www.w3.org/1999/xlink"><linearGradient id="a" gradientUnits="userSpaceOnUse" x1="97.827" x2="307.576" y1="155.368" y2="214.849"><stop offset="0" stop-color="#8797ff"/><stop offset="1" stop-color="#aaa8ff"/></linearGradient><linearGradient id="b" gradientUnits="userSpaceOnUse" x1="272.257" x2="120.914" y1="151.38" y2="-.333"><stop offset="0" stop-color="#3b22a0"/><stop offset="1" stop-color="#5156d8" stop-opacity="0"/></linearGradient><linearGradient id="c" gradientUnits="userSpaceOnUse" x1="194.103" x2="48.722" y1="236.239" y2="152.655"><stop offset="0" stop-color="#3b1e8f"/><stop offset="1" stop-color="#6a6ffb" stop-opacity="0"/></linearGradient><linearGradient id="d" gradientUnits="userSpaceOnUse" x1="110.349" x2="208.616" y1="153.803" y2="278.661"><stop offset="0" stop-color="#8898ff"/><stop offset=".984" stop-color="#5f47f1"/></linearGradient><path d="m310.142 178.941c11.915-26.619-46.993-100.99-103.27-131.974-35.473-24.003-72.437-20.705-79.923-10.166-16.429 23.129 54.402 42.727 101.772 65.597-10.183 4.423-19.778 12.36-25.421 22.51-17.66-19.281-56.422-35.883-101.904-22.51-30.65 9.013-56.122 30.26-65.967 62.351a19.227 19.227 0 0 0 -7.827-1.654c-10.655 0-19.293 8.638-19.293 19.294 0 10.655 8.638 19.293 19.293 19.293 1.975 0 8.15-1.325 8.15-1.325l98.683.716c-39.465 62.607-70.654 71.759-70.654 82.606 0 10.846 29.842 7.907 41.047 3.864 53.64-19.354 111.252-79.674 121.138-97.038 41.516 5.18 76.406 5.793 84.176-11.564z" fill="url(#a)"/><path clip-rule="evenodd" d="m228.717 102.401a.03.03 0 0 0 .008.004c2.195-.865 1.84-4.108 1.237-6.654-1.385-5.854-25.295-29.464-47.747-40.039-30.595-14.41-53.124-13.667-56.452-7.025 6.232 12.773 35.123 24.764 65.298 37.29 12.873 5.343 25.98 10.783 37.661 16.422z" fill="url(#b)" fill-rule="evenodd"/><path clip-rule="evenodd" d="m189.892 230.954c-6.187-2.364-13.176-4.534-21.122-6.502 8.472-15.16 10.25-37.603 2.249-51.793-11.23-19.914-25.326-30.513-58.082-30.513-18.016 0-66.523 6.068-67.385 46.561-.09 4.249-.002 8.142.306 11.723l88.577.642c-11.941 18.944-23.125 32.994-32.916 43.678 11.756 3.012 21.457 5.541 30.364 7.863a4800.923 4800.923 0 0 0 24.282 6.285c12.213-8.898 23.695-18.6 33.727-27.944z" fill="url(#c)" fill-rule="evenodd"/><path d="m34.247 196.269c3.619 30.761 21.1 42.816 56.823 46.383 35.722 3.568 56.213 1.174 83.493 3.656 22.784 2.073 43.128 13.684 50.675 9.672 6.792-3.611 2.992-16.657-6.096-25.027-11.781-10.85-28.086-18.393-56.776-21.07 5.718-15.655 4.116-37.604-4.764-49.546-12.839-17.267-36.538-25.074-66.532-21.663-31.337 3.564-61.364 18.992-56.823 57.595z" fill="url(#d)"/></svg>