<svg fill="none" viewBox="0 0 24 24" xmlns="http://www.w3.org/2000/svg" xmlns:xlink="http://www.w3.org/1999/xlink"><radialGradient id="a" cx="0" cy="0" gradientTransform="matrix(0 -12.3333 12.3333 0 6.333 17.667)" gradientUnits="userSpaceOnUse" r="1"><stop offset=".77" stop-color="#ff4000"/><stop offset="1" stop-color="#8754c9"/></radialGradient><radialGradient id="b" cx="0" cy="0" gradientTransform="matrix(0 -9.66667 9.66667 0 6.333 17.667)" gradientUnits="userSpaceOnUse" r="1"><stop offset=".724" stop-color="#fff700"/><stop offset="1" stop-color="#ff9901"/></radialGradient><radialGradient id="c" cx="0" cy="0" gradientTransform="matrix(0 -7 7 0 6.333 17.667)" gradientUnits="userSpaceOnUse" r="1"><stop offset=".595" stop-color="#0af"/><stop offset="1" stop-color="#01da40"/></radialGradient><linearGradient id="d"><stop offset="0" stop-color="#0af"/><stop offset="1" stop-color="#01da40"/></linearGradient><radialGradient id="e" cx="0" cy="0" gradientTransform="matrix(2.83333 0 0 7.55556 10.5 18.167)" gradientUnits="userSpaceOnUse" r="1" xlink:href="#d"/><radialGradient id="f" cx="0" cy="0" gradientTransform="matrix(0 -2.83333 53.7284 0 5.833 13.5)" gradientUnits="userSpaceOnUse" r="1" xlink:href="#d"/><linearGradient id="g" gradientUnits="userSpaceOnUse" x1="12" x2="12" y1="0" y2="24"><stop offset="0" stop-color="#174299"/><stop offset="1" stop-color="#001e59"/></linearGradient><linearGradient id="h" gradientUnits="userSpaceOnUse" x1="15.833" x2="18.667" y1="18.167" y2="18.167"><stop offset="0" stop-color="#ff4000"/><stop offset="1" stop-color="#8754c9"/></linearGradient><linearGradient id="i" gradientUnits="userSpaceOnUse" x1="5.833" x2="5.833" y1="5.333" y2="8.167"><stop offset="0" stop-color="#8754c9"/><stop offset="1" stop-color="#ff4000"/></linearGradient><linearGradient id="j"><stop offset="0" stop-color="#fff700"/><stop offset="1" stop-color="#ff9901"/></linearGradient><linearGradient id="k" gradientUnits="userSpaceOnUse" x1="13.333" x2="16" xlink:href="#j" y1="18.167" y2="18.167"/><linearGradient id="l" gradientUnits="userSpaceOnUse" x1="5.833" x2="5.833" xlink:href="#j" y1="10.667" y2="8"/><clipPath id="m"><path d="m0 0h24v24h-24z"/></clipPath><mask id="n" height="24" maskUnits="userSpaceOnUse" width="24" x="0" y="0"><circle cx="12" cy="12" fill="#d9d9d9" r="12"/></mask><g clip-path="url(#m)"><g mask="url(#n)"><path d="m0 0h24v24h-24z" fill="url(#g)"/></g><path d="m5.333 8.333h1a9.333 9.333 0 0 1 9.334 9.334v1h2a1 1 0 0 0 1-1c0-6.812-5.522-12.334-12.334-12.334a1 1 0 0 0 -1 1z" fill="url(#a)"/><path d="m16 17.667h2.667a1 1 0 0 1 -1 1h-1.667z" fill="url(#h)"/><path d="m6.333 5.333v2.667h-1v-1.667a1 1 0 0 1 1-1z" fill="url(#i)"/><path d="m5.333 8h1a9.666 9.666 0 0 1 9.667 9.667v1h-3v-1a6.667 6.667 0 0 0 -6.667-6.667h-1z" fill="url(#b)"/><path d="m13.333 17.667h2.667v1h-2.667z" fill="url(#k)"/><path d="m5.333 10.667v-2.667h1v2.667z" fill="url(#l)"/><path d="m5.333 12.333a1 1 0 0 0 1 1 4.333 4.333 0 0 1 4.334 4.334 1 1 0 0 0 1 1h1.666v-1a7 7 0 0 0 -7-7h-1z" fill="url(#c)"/><path d="m10.667 17.667h2.666v1h-1.666a1 1 0 0 1 -1-1z" fill="url(#e)"/><path d="m6.333 13.333a1 1 0 0 1 -1-1v-1.666h1z" fill="url(#f)"/></g></svg>