<svg xmlns="http://www.w3.org/2000/svg" fill="none" viewBox="0 0 40 40">
  <circle cx="20" cy="20" r="20" fill="#D08E39"/>
  <path fill="#002522" d="m33.495 12.219-1.74-.102a.523.523 0 0 1-.486-.472l-.153-1.609a.116.116 0 0 0-.114-.096.116.116 0 0 0-.115.096l-.156 1.609a.516.516 0 0 1-.487.472l-1.74.11a.116.116 0 0 0 0 .228l1.74.102a.526.526 0 0 1 .487.472l.153 1.609a.116.116 0 0 0 .229 0l.152-1.61a.523.523 0 0 1 .487-.471l1.743-.11a.116.116 0 0 0 0-.228Z"/>
  <path fill="#002522" fill-rule="evenodd" d="m29.838 18.247.287.204c.253.171.451.412.57.694.057.157.08.326.066.494a2.984 2.984 0 0 1-.334 1.115c-.065.117-.14.229-.222.333l-.04.055.05.323c.017.13.025.259.026.389a3.533 3.533 0 0 1-1.275 2.695l-.047.04-.058.018c-.508.182-1.029.325-1.558.428a6.809 6.809 0 0 1-1.645.142h-.08a16.4 16.4 0 0 0-3.356-.69c-.072-.007-.146-.012-.22-.018a8.065 8.065 0 0 1-.68-.073 4.848 4.848 0 0 1-.905-.232 4.994 4.994 0 0 0-1.583-.276h-.018a2.107 2.107 0 0 0-.265 1.67 7.16 7.16 0 0 0 .726 2.02c.393.665.744 1.354 1.053 2.062.167.376.289.77.363 1.173.079.44.046.894-.094 1.319l-.178.504-.432-.32a1.266 1.266 0 0 0-.207-.119 5.904 5.904 0 0 1-.145.726 5.086 5.086 0 0 1-.52 1.188c-.296-2.358-1.945-3.034-3.557-3.694-.722-.296-1.436-.588-2.018-1.027-1.88-1.42-2.033-3.08-.871-5.985.355-.894.613-1.823.77-2.771a9.352 9.352 0 0 1 .138-.723l.032-.149c.005.096.007.19.01.286.007.23.013.458.041.684.018.308.079.613.182.904.047.124.117.237.207.334.026.03.054.056.087.087l.076.073c.048.055.1.106.156.152.232.177.489.317.763.414.58.203 1.183.332 1.794.385.589.07 1.188.095 1.79.095h.091a5.81 5.81 0 0 1 1.838.312 5.55 5.55 0 0 0 1.638.29c1.172.114 2.33.349 3.454.702.479.012.958-.03 1.427-.128.334-.065.665-.156.992-.254.73-.308 1.212-1.144.225-1.035a4.9 4.9 0 0 0-.694.098 3.337 3.337 0 0 0-.544.168 5.168 5.168 0 0 1-.545.177 2.423 2.423 0 0 1-1.22-.029 3.518 3.518 0 0 0-1.09-.258c.174-.1.37-.158.57-.17.144-.015.273-.01.398-.005.06.002.12.005.18.005.34.043.685.028 1.02-.044a2.71 2.71 0 0 0 .528-.242c.15-.08.309-.166.482-.237.378-.16.784-.245 1.194-.25h.247c.287-.4.53-.843.436-1.207a.93.93 0 0 0-.443-.323 4.396 4.396 0 0 0-.257-.07c-.432-.113-1.226-.32-1.537-.605-.232-.236-.095-.712.857-.908.438-.076.884-.09 1.326-.04a.875.875 0 0 0 .45-.04l-.054-.047-.276-.197-.28-.21-1.09-.832a9.413 9.413 0 0 0-.54-.385l-.088-.05-.17-.073a4.555 4.555 0 0 1-1.296-.843c-1.065-.893-2.257-3.05-2.569-3.755a2.437 2.437 0 0 0-1.235-1.213 1.762 1.762 0 0 1 1.428.603c.091.076.262.323.468.621.416.603.977 1.415 1.322 1.449.186-.007.37-.035.549-.084a4.06 4.06 0 0 1-.469-.537 6.548 6.548 0 0 1-.47-.746 16.26 16.26 0 0 0-.144-.25 4.684 4.684 0 0 0-.577-.856 1.815 1.815 0 0 0-.164-.153 1.172 1.172 0 0 0-.192-.116 4.942 4.942 0 0 0-.49-.214 5.854 5.854 0 0 1-.552-.236l-.509-.255-1.017-.494a17.79 17.79 0 0 0-2.066-.838 10.67 10.67 0 0 0-2.15-.469 4.693 4.693 0 0 0-.523-.04.883.883 0 0 0-.407.087c-.067.03-.135.066-.21.105-.09.049-.19.101-.302.15l-.505.232c-.656.33-1.283.717-1.874 1.155-.475.31-.895.698-1.242 1.147a4.074 4.074 0 0 1 1.515.218 6.217 6.217 0 0 0-1.932.276 6.953 6.953 0 0 0-.897.335 5.732 5.732 0 0 0-.84.435 3.697 3.697 0 0 0-.726.549.897.897 0 0 0-.203.316c-.062.134-.12.283-.174.432-.21.611-.378 1.236-.502 1.87a14.919 14.919 0 0 0-.29 3.843 7.39 7.39 0 0 0 .795 2.985c.447-.585.883-1.184 1.304-1.79a31.891 31.891 0 0 0 1.507-2.423c.24-.429.45-.877.664-1.33.195-.415.392-.834.615-1.245.225-.44.489-.86.788-1.253.154-.203.333-.386.533-.545a1.23 1.23 0 0 1 .698-.28c-.814.73-1.45 2.692-2.078 4.89-.512 1.782-2.237 5.85-3.326 5.948-.425.025-.578-.178-.868-.592l-.236-.327a6.508 6.508 0 0 1-.945-1.917 9.606 9.606 0 0 1-.345-2.063 14.417 14.417 0 0 1 .048-2.06c.075-.678.19-1.35.345-2.015.151-.667.35-1.322.592-1.961.065-.16.13-.32.21-.483.044-.092.094-.18.15-.265.06-.086.128-.166.203-.24a3.84 3.84 0 0 1 .89-.632 6.066 6.066 0 0 1 1.717-.585c.168-.374.4-.716.683-1.013a6.95 6.95 0 0 1 .9-.788 10.712 10.712 0 0 1 1.936-1.238c.167-.084.385-.182.53-.244.072-.03.146-.069.227-.111.085-.045.178-.093.282-.14.218-.102.456-.154.697-.152.203.003.406.017.607.044.78.088 1.55.256 2.295.5.734.245 1.453.537 2.15.872l1.031.502.512.254c.114.061.258.117.412.177l.086.034c.185.072.36.148.548.243a2 2 0 0 1 .294.178c.09.072.176.151.255.236.279.3.523.632.726.988l.025.042c.375.652.724 1.258 1.264 1.614l.433.287v.047l-.12.214-.4.102a.305.305 0 0 0-.178.145.271.271 0 0 0-.032.113 2.212 2.212 0 0 0 0 .236c0 .123-.018.245-.055.363-.019.065-.04.12-.058.168a1.228 1.228 0 0 0-.033.09.204.204 0 0 0 0 .16c.284.294.614.539.977.726.091.05.185.094.284.138l.148.058c.075.034.147.074.215.12.193.122.352.242.518.367l.063.047 1.09.835.268.203Zm-9.453-2.302a1.451 1.451 0 0 1-.28 0c-.625-.036-.93-.465-.828-.904.102-.44.04-.585-.084-.585a.933.933 0 0 0-.468.363H18.7a.045.045 0 0 1-.037-.01.043.043 0 0 1-.014-.036c.13-.913.664-.953.9-.953.72.054 1.435.176 2.132.364.02.003.04.012.054.026a.102.102 0 0 1-.014.159.776.776 0 0 0-.247.744c.044.429-.465.763-1.09.832Z" clip-rule="evenodd"/>
</svg>
