<svg fill="none" viewBox="0 0 24 24" xmlns="http://www.w3.org/2000/svg" xmlns:xlink="http://www.w3.org/1999/xlink"><clipPath id="a"><path d="m0 0h24v24h-24z"/></clipPath><g clip-path="url(#a)"><rect fill="#335de5" height="24" rx="5" width="24"/><path d="m21.724 11.308a9.67 9.67 0 0 0 -1.657-4.733 9.874 9.874 0 0 0 -3.821-3.303 10.054 10.054 0 0 0 -9.814.55 9.826 9.826 0 0 0 -3.416 3.708l-.038.076a5.45 5.45 0 0 0 -.501 1.614c-.234 1.656.129 3.13 1.077 4.264 1.038 1.241 2.727 1.98 4.753 2.076 2.466.122 4.919-.54 6.659-1.757l1.032.604c-.986.841-3.265 2.355-7.04 2.562-4.237.23-6.003-1.125-6.02-1.139l-.297.36-.391.463c.075.063 1.769 1.41 5.746 1.41.325 0 .667 0 1.023-.028 4.569-.251 7.081-2.211 7.96-3.052l.864.516a7.855 7.855 0 0 1 -2.108 1.89c-2.868 1.823-6.514 2.058-9.067 1.931l-.054 1.063c.429.02.84.03 1.241.03 7.194 0 10.104-3.223 10.92-4.379l.675.395a8.76 8.76 0 0 1 -2.578 2.74 8.929 8.929 0 0 1 -4.257 1.522l.093 1.059a10.02 10.02 0 0 0 4.78-1.707 9.81 9.81 0 0 0 3.294-3.814 9.643 9.643 0 0 0 .942-4.92zm-4.155.164a.858.858 0 0 1 -.864-.85c0-.47.387-.852.864-.852s.864.381.864.851-.386.851-.864.851z" fill="#ececec"/></g></svg>