<svg xmlns="http://www.w3.org/2000/svg" fill="none" viewBox="0 0 512 512">
  <rect width="512" height="512" fill="url('#a')" rx="170.667"/>
  <rect width="426.667" height="426.667" x="42.667" y="42.667" fill="#2461ED" rx="170.667"/>
  <path fill="#fff" fill-rule="evenodd" d="M286.757 250.326c-41.73-22.55-92.506-51.794-130.72-75.629-11.276-8.123-5.553-25.364 8.074-25.364h189.086c10.548 0 17.604 11.761 12.318 20.66-12.706 21.944-31.256 49.805-46.75 71.895-8.317 11.857-21.872 13.894-32.008 8.438Zm-60.862 7.323c40.349 21.508 96.895 54.218 137.074 78.951 12.415 7.663 7.468 26.042-7.032 26.042-23.728 0-62.285.007-100.641.013-37.961.006-75.725.012-98.726.012-11.59 0-17.531-12.027-12.609-20.417 16.634-28.346 35.33-56.959 50.872-78.321 6.911-9.529 20.975-11.663 31.062-6.28Z" clip-rule="evenodd"/>
  <defs>
    <linearGradient id="a" x1="0" x2="604.983" y1="0" y2="352.348" gradientUnits="userSpaceOnUse">
      <stop stop-color="#2962EF"/>
      <stop offset="1" stop-color="#255CE5"/>
    </linearGradient>
  </defs>
</svg>
