<svg xmlns="http://www.w3.org/2000/svg" viewBox="0 0 24 24">
  <path d="m0 0h24v24h-24z" fill="#1f2937" />
  <path d="m12 24c6.6274 0 12-5.3726 12-12 0-6.62742-5.3726-12-12-12-6.62742 0-12 5.37258-12 12 0 6.6274 5.37258 12 12 12z" fill="#1f2937" />
  <path d="m13.7709 11.2019 1.1543-1.9587 3.1113 4.846.0015.9301-.0101-6.39968c-.0074-.15643-.0905-.29953-.223-.38393l-5.6016-3.22212c-.1309-.06443-.2972-.06369-.428.00204-.0176.0088-.0343.01845-.0501.02897l-.0195.01227-5.43721 3.1508-.02108.00958c-.02713.01247-.05458.02833-.08029.04675-.10311.07392-.17156.18325-.1937.30588-.00333.01859-.0058.03749-.00693.05663l.00855 5.21501 2.89804-4.49182c.3649-.5956 1.15982-.78746 1.89782-.77703l.8661.02285-5.1034 8.1845.6016.3463 5.1645-8.52248 2.2828-.00828-5.15124 8.73756 2.14664 1.2347.2565.1475c.1085.0441.2364.0463.3458.0068l5.6803-3.2918-1.086.6293zm.4404 6.3431-2.1682-3.4029 1.3236-2.2459 2.8474 4.4881z" fill="#2d374b" />
  <path d="m12.0432 14.1421 2.1681 3.4029 2.0029-1.1607-2.8475-4.4881z" fill="#28a0f0" />
  <path d="m18.038 15.0192-.0015-.93-3.1113-4.84604-1.1543 1.95874 3.0036 4.8576 1.0859-.6293c.1066-.0866.171-.2135.1778-.3505z" fill="#28a0f0" />
  <path d="m5.00003 15.8963 1.53357.8837 5.1034-8.18446-.8661-.02286c-.738-.01042-1.53298.18143-1.89784.77703l-2.89806 4.49189-.97497 1.498z" fill="#fff" />
  <path d="m14.5825 8.59557-2.2828.00828-5.16451 8.52245 1.80517 1.0394.4909-.8326z" fill="#fff" />
  <path d="m19 8.58379c-.0191-.4774-.2776-.91443-.6825-1.16887l-5.675-3.26356c-.4005-.20166-.9008-.20192-1.302-.00013-.0475.02393-5.51885 3.1971-5.51885 3.1971-.07573.03632-.14867.07958-.21727.12869-.36144.25903-.58175.66158-.60438 1.10382v6.75876l.97497-1.498-.00851-5.21508c.00113-.01906.00353-.03784.00693-.05636.02205-.1227.09055-.23216.1937-.30614.02574-.01842 5.59061-3.23957 5.60821-3.24841.1308-.06569.2971-.06646.428-.00204l5.6016 3.22206c.1326.0844.2156.2275.223.38393v6.46014c-.0068.137-.0609.264-.1674.3505l-1.086.6293-.5604.3248-2.0028 1.1607-2.0311 1.177c-.1094.0395-.2373.0373-.3458-.0068l-2.40317-1.3822-.4909.8326 2.15957 1.2434c.0715.0406.1351.0766.1873.1059.0808.0454.1359.0757.1554.0852.1535.0745.3744.1179.5734.1179.1824 0 .3604-.0335.5287-.0995l5.8996-3.4165c.3386-.2624.5378-.658.5557-1.0867z" fill="#96bedc" />
</svg>
