<svg xmlns="http://www.w3.org/2000/svg" fill="none" viewBox="0 0 24 24">
  <path fill="#181a20" d="M0 0h24v24H0z"/>
  <path fill="#181a20" d="M12 24c6.627 0 12-5.373 12-12S18.627 0 12 0 0 5.373 0 12s5.373 12 12 12z"/>
  <path fill="#f0b90b" d="M7.615 12.002 5.81 13.807 4 12.002l1.805-1.805zm4.387-4.387L15.1 10.71l1.805-1.805L12.002 4 7.096 8.906l1.805 1.805zm6.193 2.582-1.805 1.805 1.805 1.805L20 12.002zm-6.193 6.193-3.096-3.097L7.1 15.1l4.901 4.905 4.902-4.905-1.805-1.806zm0-2.583 1.805-1.805-1.805-1.805-1.81 1.805z"/>
</svg>
