<svg xmlns="http://www.w3.org/2000/svg" fill="none" viewBox="0 0 24 24">
  <clipPath id="a">
    <path d="M5 8h14.733v8H5z"/>
  </clipPath>
  <path fill="#ff0420" d="M0 0h24v24H0z"/>
  <path fill="#ff0420" d="M12 24c6.627 0 12-5.373 12-12S18.627 0 12 0 0 5.373 0 12s5.373 12 12 12z"/>
  <g fill="#fff" clip-path="url(#a)">
    <path d="M8.03 16c-.89 0-1.62-.207-2.188-.622-.561-.422-.842-1.022-.842-1.8 0-.163.019-.363.056-.6a36.45 36.45 0 0 1 .415-1.922C5.98 9.019 7.293 8 9.41 8c.576 0 1.092.096 1.548.289a2.35 2.35 0 0 1 1.077.844c.262.37.393.815.393 1.334 0 .155-.019.352-.056.589-.112.659-.247 1.3-.404 1.922-.262 1.015-.714 1.774-1.358 2.278-.643.496-1.503.744-2.58.744zm.157-1.6c.419 0 .774-.122 1.066-.367.299-.244.512-.618.64-1.122.171-.696.302-1.304.392-1.822.03-.156.045-.315.045-.478 0-.674-.355-1.011-1.066-1.011-.419 0-.778.122-1.077.367-.292.244-.501.618-.629 1.122a24.48 24.48 0 0 0-.404 1.822 2.35 2.35 0 0 0-.044.467c0 .681.359 1.022 1.077 1.022zm4.462 1.04a.228.228 0 0 1-.182-.074.252.252 0 0 1-.033-.192l1.482-6.908c.014-.078.053-.142.118-.192S14.166 8 14.238 8h2.855c.794 0 1.43.163 1.91.489.487.326.73.797.73 1.414 0 .177-.021.36-.064.552-.18.815-.54 1.417-1.084 1.807-.537.39-1.274.585-2.211.585h-1.45l-.493 2.327c-.014.078-.054.142-.118.192s-.133.074-.204.074zm3.8-4.06c.3 0 .561-.082.783-.245.23-.163.38-.396.451-.701a1.84 1.84 0 0 0 .032-.319c0-.205-.06-.361-.182-.468-.122-.113-.33-.17-.623-.17h-1.288l-.408 1.903z"/>
  </g>
</svg>
