<svg xmlns="http://www.w3.org/2000/svg" fill="none" viewBox="0 0 28 28">
  <path fill="#F3EBFF" d="M0 0h28v28H0z"/>
  <path fill="url(#a)" d="m18.364 17.227 4.27-2.465a.735.735 0 0 0 .366-.635v-4.93c0-.26-.14-.504-.366-.634l-4.27-2.465a.735.735 0 0 0-.732 0l-4.27 2.465a.735.735 0 0 0-.366.634v8.81l-2.994 1.728-2.993-1.728V14.55l2.993-1.728 1.975 1.14v-2.32l-1.608-.928a.735.735 0 0 0-.733 0l-4.27 2.466a.735.735 0 0 0-.366.634v4.93c0 .26.14.504.366.635l4.27 2.465c.225.13.506.13.732 0l4.27-2.465a.735.735 0 0 0 .366-.635v-8.81l.054-.03 2.94-1.698 2.993 1.729v3.457l-2.993 1.728-1.972-1.138V16.3l1.605.927c.226.13.508.129.733-.001Z"/>
  <defs>
    <linearGradient id="a" x1="6.53" x2="22" y1="19.417" y2="8.137" gradientUnits="userSpaceOnUse">
      <stop stop-color="#A726C1"/>
      <stop offset=".88" stop-color="#803BDF"/>
      <stop offset="1" stop-color="#7B3FE4"/>
    </linearGradient>
  </defs>
</svg>
