<svg xmlns="http://www.w3.org/2000/svg" fill="none" viewBox="0 0 24 24">
  <path fill="#854ce6" d="M0 0h24v24H0z"/>
  <path fill="#854ce6" d="M12 24c6.627 0 12-5.373 12-12S18.627 0 12 0 0 5.373 0 12s5.373 12 12 12z"/>
  <path fill="#fff" d="m15.932 18.9.102-.042 1.71-.994 1.764-1.024a.994.994 0 0 0 .252-.195.906.906 0 0 0 .24-.491v-4.23a1.024 1.024 0 0 0-.27-.545 1.952 1.952 0 0 0-.45-.314l-3.21-1.852a1.05 1.05 0 0 0-.857 0c-.054 0-.42.23-1.23.698l-1.968 1.142-1.944 1.124c-.6.367-1.158.675-1.2.687a.952.952 0 0 1-.438.1c-.15 0-.3-.03-.438-.088-.065 0-1.86-1.06-1.955-1.13a1.193 1.193 0 0 1-.246-.249 1.135 1.135 0 0 1-.162-.379 10.9 10.9 0 0 1 0-1.183 5.12 5.12 0 0 1 .042-1.379 1.31 1.31 0 0 1 .162-.313c.068-.092.151-.172.246-.237.072-.047 1.8-1.06 1.853-1.1a1.074 1.074 0 0 1 .888 0c.06.029 1.8 1.04 1.932 1.118a.963.963 0 0 1 .306.331.996.996 0 0 1 .108.26v1.575l.798-.455.786-.456v-.74c0-.822 0-.792-.054-.958a1.113 1.113 0 0 0-.372-.503c-.06-.041-3.324-1.935-3.48-2.018L8.721 5h-.654l-.09.036c-.065.03-.527.29-1.8 1.023-.941.545-1.733 1.006-1.763 1.03A.994.994 0 0 0 4 7.728v4.343a.934.934 0 0 0 .15.367c.078.11.173.208.282.29.078.047 3.408 1.982 3.492 2.024a1.092 1.092 0 0 0 .917 0l1.2-.705c.978-.591 1.284-.751 1.938-1.112.654-.361.834-.462 1.944-1.13l1.2-.728c.251-.114.538-.125.797-.03.042.01.083.027.12.048.072.035 1.878 1.124 1.932 1.183.205.16.342.39.384.645v2.42a1.021 1.021 0 0 1-.402.657c-.06.041-1.8 1.071-1.938 1.13a1.08 1.08 0 0 1-.87 0c-.047 0-.395-.225-.99-.592l-.965-.591a1.084 1.084 0 0 1-.372-.51c-.048-.147-.048-.106-.054-.934v-.757l-.786.455-.786.456v.763c0 .828 0 .823.042.965a1.052 1.052 0 0 0 .39.526c.054.042 3.372 1.982 3.45 2.024.078.041.12.065.45.065h.294z"/>
</svg>
