<svg xmlns="http://www.w3.org/2000/svg" fill="none" viewBox="0 0 36 36">
  <circle cx="18" cy="18" r="18" fill="#FFEEDA"/>
  <path fill="#FFEEDA" d="M26.986 22.522V9.562c-.024-1.084-.88-1.952-1.965-1.952H11.495a5.364 5.364 0 0 0-5.267 5.364c0 .989.265 1.833.675 2.58.337.615.88 1.193 1.41 1.64.145.12.072.072.53.361.64.386 1.363.579 1.363.579v7.75c.012.363.06.724.144 1.05a3.494 3.494 0 0 0 2.086 2.338c.434.17.916.29 1.434.29l10.801.036a3.905 3.905 0 0 0 3.906-3.906c0-1.314-.627-2.46-1.591-3.17Z"/>
  <path fill="#EBC28E" d="M27.24 25.752a2.579 2.579 0 0 1-2.569 2.495l-7.437-.024c.59-.687.952-1.579.952-2.543 0-1.531-.916-2.58-.916-2.58h7.401a2.572 2.572 0 0 1 2.568 2.58v.072Z"/>
  <path fill="#190602" d="M9 16.072c-.856-.807-1.458-1.856-1.458-3.11v-.133c.072-2.121 1.82-3.833 3.941-3.905H25.01c.35.012.639.265.639.627v11.44c.313.06.458.096.76.204.228.085.566.278.566.278V9.55c-.024-1.085-.88-1.953-1.965-1.953H11.483a5.364 5.364 0 0 0-5.267 5.364c0 1.7.771 3.158 2.049 4.183.084.072.169.157.398.157a.646.646 0 0 0 .663-.663c-.012-.29-.133-.398-.326-.567Z"/>
  <path fill="#190602" d="M24.672 21.762H14.063c-.71 0-1.29.59-1.29 1.302v1.519c.025.7.627 1.314 1.327 1.314h.783v-1.314H14.1v-1.495h.433c1.338 0 2.327 1.242 2.327 2.58 0 1.181-1.073 2.688-2.869 2.568-1.603-.109-2.46-1.531-2.46-2.568V12.733c0-.578-.47-1.06-1.06-1.06h-1.06v1.325h.783v12.67c-.036 2.58 1.832 3.882 3.785 3.882l10.693.036a3.905 3.905 0 0 0 3.905-3.906 3.915 3.915 0 0 0-3.905-3.918Zm2.567 3.99a2.58 2.58 0 0 1-2.567 2.496l-7.438-.024c.59-.688.952-1.58.952-2.544 0-1.53-.916-2.58-.916-2.58h7.402a2.572 2.572 0 0 1 2.567 2.58v.072Zm-5.34-12.525h-8.077v-1.314H21.9a.58.58 0 0 1 .579.579v.157a.579.579 0 0 1-.579.578Z"/>
  <path fill="#190602" d="M21.899 19.46h-8.077v-1.315H21.9a.58.58 0 0 1 .579.58v.156a.587.587 0 0 1-.579.578Zm1.398-3.11H13.81v-1.315h9.487a.58.58 0 0 1 .579.579v.157a.571.571 0 0 1-.579.578Z"/>
</svg>
